<svg version="1.1" role="img" xmlns="http://www.w3.org/2000/svg" xmlns:xlink="http://www.w3.org/1999/xlink" x="0px" y="0px"
	 viewBox="0 0 200 45" style="enable-background:new 0 0 200 45;" xml:space="preserve">
<style type="text/css">
	.st0{fill:#FF2B06;}
</style>
<path class="st0" d="M2.6,39.5l-1.9-2.7h1.8l1,1.5l1-1.5h1.7l-1.9,2.7l2.1,3H4.7l-1.2-1.8l-1.2,1.8H0.6L2.6,39.5L2.6,39.5z"/>
<path d="M13.9,39.2H8.3V38h5.6C13.9,38,13.9,39.2,13.9,39.2z M13.9,41.5H8.3v-1.2h5.6L13.9,41.5L13.9,41.5z M18.1,36h-1.6v-1.3h1.6
	V36z M16.5,36.8h1.6v5.7h-1.6V36.8z M19.1,36.8h1.5v0.8h0c0.4-0.6,1.1-1,1.7-1c1.7,0,2.1,0.9,2.1,2.3v3.5h-1.6v-3.2
	c0-0.9-0.3-1.4-1-1.4c-0.8,0-1.2,0.5-1.2,1.6v3h-1.6C19.1,42.5,19.1,36.8,19.1,36.8z M29.5,41.8L29.5,41.8c-0.4,0.6-1,0.9-1.7,0.9
	c-1.7,0-2.5-1.5-2.5-3c0-1.5,0.8-2.9,2.5-2.9c0.7,0,1.3,0.3,1.7,0.8h0h0v-2.9h1.6v7.8h-1.5C29.5,42.5,29.5,41.8,29.5,41.8z
	 M28.1,37.9c-1,0-1.4,0.9-1.4,1.8c0,0.9,0.4,1.8,1.4,1.8c1,0,1.3-0.9,1.3-1.8C29.4,38.7,29.1,37.9,28.1,37.9z M33.2,40
	c0,1,0.5,1.4,1.4,1.4c0.6,0,1.1-0.4,1.2-0.7h1.4c-0.4,1.3-1.4,1.9-2.7,1.9c-1.8,0-2.9-1.2-2.9-3c0-1.7,1.2-3,2.9-3
	c1.9,0,2.9,1.6,2.8,3.4C37.3,40,33.2,40,33.2,40z M35.7,39.1c-0.1-0.8-0.5-1.2-1.2-1.2c-1,0-1.3,0.8-1.3,1.2H35.7z M38,36.8h1.5v0.7
	h0c0.4-0.6,1-0.9,1.7-0.9c1.8,0,2.6,1.4,2.6,3.1c0,1.5-0.8,2.9-2.5,2.9c-0.7,0-1.3-0.3-1.7-0.9h0v2.7H38L38,36.8L38,36.8z
	 M42.2,39.7c0-0.9-0.4-1.8-1.4-1.8c-1,0-1.4,0.9-1.4,1.8c0,0.9,0.3,1.8,1.4,1.8C41.9,41.5,42.2,40.6,42.2,39.7L42.2,39.7z M45.8,40
	c0.1,1,0.5,1.4,1.4,1.4c0.6,0,1.1-0.4,1.2-0.7h1.4c-0.4,1.3-1.4,1.9-2.7,1.9c-1.8,0-2.9-1.2-2.9-3c0-1.7,1.2-3,2.9-3
	c1.9,0,2.9,1.6,2.8,3.4L45.8,40L45.8,40z M48.3,39.1c-0.1-0.8-0.5-1.2-1.2-1.2c-1,0-1.3,0.8-1.3,1.2H48.3L48.3,39.1z M50.6,36.8H52
	v0.8h0c0.4-0.6,1.1-1,1.7-1c1.7,0,2.1,0.9,2.1,2.3v3.5h-1.5v-3.2c0-0.9-0.3-1.4-1-1.4c-0.9,0-1.2,0.5-1.2,1.6v3h-1.6
	C50.6,42.5,50.6,36.8,50.6,36.8z M60.9,41.8L60.9,41.8c-0.4,0.6-1,0.9-1.7,0.9c-1.7,0-2.5-1.5-2.5-3c0-1.5,0.8-2.9,2.5-2.9
	c0.7,0,1.3,0.3,1.7,0.8h0v-2.9h1.6v7.8h-1.5C60.9,42.5,60.9,41.8,60.9,41.8z M59.5,37.9c-1,0-1.4,0.9-1.4,1.8c0,0.9,0.4,1.8,1.4,1.8
	c1,0,1.3-0.9,1.3-1.8C60.9,38.7,60.6,37.9,59.5,37.9L59.5,37.9z M64.6,40c0,1,0.5,1.4,1.4,1.4c0.6,0,1.1-0.4,1.2-0.7h1.4
	c-0.4,1.3-1.4,1.9-2.7,1.9c-1.8,0-2.9-1.2-2.9-3c0-1.7,1.2-3,2.9-3c1.9,0,2.9,1.6,2.8,3.4C68.7,40,64.6,40,64.6,40z M67.2,39.1
	c-0.1-0.8-0.5-1.2-1.2-1.2c-1,0-1.3,0.8-1.3,1.2H67.2z M69.4,36.8h1.5v0.8l0,0c0.4-0.6,1.1-1,1.7-1c1.7,0,2.1,0.9,2.1,2.3v3.5h-1.6
	v-3.2c0-0.9-0.3-1.4-1-1.4c-0.8,0-1.2,0.5-1.2,1.6v3h-1.6C69.4,42.5,69.4,36.8,69.4,36.8z M77.7,36.8h1.1v1h-1.1v2.8
	c0,0.5,0.1,0.7,0.6,0.7c0.2,0,0.3,0,0.5,0v1.2c-0.3,0-0.6,0.1-0.9,0.1c-1,0-1.8-0.2-1.8-1.4v-3.4h-0.9v-1h0.9v-1.7h1.6L77.7,36.8
	L77.7,36.8z M79.4,34.7H81v7.8h-1.6V34.7z M84.8,43.2c-0.3,0.9-0.9,1.3-2,1.3c-0.3,0-0.6,0-1,0v-1.3c0.3,0,0.6,0.1,0.9,0.1
	c0.5-0.1,0.7-0.6,0.5-1.1l-2-5.3H83l1.3,3.9h0l1.2-3.9h1.6L84.8,43.2L84.8,43.2z M93,36.7c1.8,0,2.9,1.2,2.9,3s-1.1,3-2.9,3
	c-1.8,0-2.9-1.2-2.9-3S91.3,36.7,93,36.7z M93,41.5c1.1,0,1.4-0.9,1.4-1.8c0-0.9-0.3-1.8-1.4-1.8s-1.4,0.9-1.4,1.8
	C91.7,40.6,92,41.5,93,41.5L93,41.5z M96.5,36.8H98v1c0.3-0.7,1.1-1.2,1.8-1.2c0.1,0,0.2,0,0.3,0.1v1.4c-0.1,0-0.4-0.1-0.6-0.1
	c-1.1,0-1.5,0.8-1.5,1.8v2.6h-1.6L96.5,36.8L96.5,36.8z M106.1,42.1c0,0.9-0.3,2.5-2.9,2.5c-1.1,0-2.4-0.5-2.5-1.8h1.5
	c0.1,0.6,0.6,0.8,1.2,0.8c0.9,0,1.3-0.6,1.2-1.4v-0.7c-0.3,0.6-1,0.9-1.7,0.9c-1.7,0-2.4-1.3-2.4-2.9c0-1.5,0.8-2.8,2.4-2.8
	c0.7,0,1.3,0.3,1.7,0.9v-0.8h1.5L106.1,42.1L106.1,42.1z M104.6,39.6c0-0.9-0.3-1.7-1.3-1.7c-0.9,0-1.3,0.8-1.3,1.6
	c0,0.8,0.3,1.7,1.3,1.7C104.1,41.2,104.6,40.4,104.6,39.6L104.6,39.6z M106.8,38.6c0.1-1.5,1.4-1.9,2.7-1.9c1.1,0,2.5,0.3,2.5,1.6v3
	c0,0.5,0,1,0.2,1.3h-1.6c0-0.2-0.1-0.4-0.1-0.5c-0.5,0.5-1.2,0.7-1.9,0.7c-1.1,0-1.9-0.5-1.9-1.7c0-1.3,1-1.6,1.9-1.7
	c1-0.1,1.8-0.1,1.8-0.7c0-0.7-0.5-0.8-1-0.8c-0.6,0-1,0.2-1,0.9L106.8,38.6L106.8,38.6z M110.4,39.7c-0.2,0.2-0.8,0.2-1.3,0.3
	c-0.5,0.1-0.9,0.3-0.9,0.8c0,0.6,0.4,0.7,0.9,0.7c1.2,0,1.3-1,1.3-1.3L110.4,39.7L110.4,39.7z M113,36.8h1.5v0.8h0
	c0.4-0.6,1.1-1,1.7-1c1.7,0,2.1,0.9,2.1,2.3v3.5h-1.6v-3.2c0-0.9-0.3-1.4-1-1.4c-0.8,0-1.2,0.5-1.2,1.6v3H113L113,36.8L113,36.8z
	 M120.6,36h-1.6v-1.3h1.6V36z M119.1,36.8h1.6v5.7h-1.6V36.8z M121.3,41.3l3-3.3h-2.7v-1.2h4.8V38l-3,3.3h3.2v1.2h-5.2V41.3z
	 M128.4,40c0,1,0.5,1.4,1.4,1.4c0.6,0,1.1-0.4,1.2-0.7h1.4c-0.4,1.3-1.4,1.9-2.7,1.9c-1.8,0-2.9-1.2-2.9-3c0-1.7,1.2-3,2.9-3
	c1.9,0,2.9,1.6,2.8,3.4L128.4,40L128.4,40z M130.9,39.1c-0.1-0.8-0.5-1.2-1.2-1.2c-1,0-1.3,0.8-1.3,1.2H130.9L130.9,39.1z
	 M137.3,41.8L137.3,41.8c-0.4,0.6-1,0.9-1.7,0.9c-1.7,0-2.5-1.5-2.5-3c0-1.5,0.8-2.9,2.5-2.9c0.7,0,1.3,0.3,1.7,0.8h0h0v-2.9h1.6
	v7.8h-1.5C137.3,42.5,137.3,41.8,137.3,41.8z M135.9,37.9c-1,0-1.4,0.9-1.4,1.8c0,0.9,0.4,1.8,1.4,1.8c1,0,1.3-0.9,1.3-1.8
	C137.2,38.7,136.9,37.9,135.9,37.9L135.9,37.9z M144.4,36.1h-2.3v-1.4h6.4v1.4h-2.4v6.4h-1.7V36.1z M149.2,34.7h5.9v1.4h-4.1v1.7
	h3.8v1.3h-3.8v1.9h4.2v1.4h-6L149.2,34.7L149.2,34.7z M155.8,34.7h3.4c2,0,3.5,1.3,3.5,3.9c0,2.3-1.2,4-3.6,4h-3.4L155.8,34.7
	L155.8,34.7z M157.6,41.1h1.5c1,0,2-0.6,2-2.3c0-1.6-0.5-2.6-2.3-2.6h-1.2L157.6,41.1L157.6,41.1z M167.7,40c0,1,0.5,1.4,1.4,1.4
	c0.6,0,1.1-0.4,1.2-0.7h1.4c-0.4,1.3-1.4,1.9-2.7,1.9c-1.8,0-2.9-1.2-2.9-3c0-1.7,1.2-3,2.9-3c1.9,0,2.9,1.6,2.8,3.4L167.7,40
	L167.7,40z M170.3,39.1c-0.1-0.8-0.5-1.2-1.2-1.2c-1,0-1.3,0.8-1.3,1.2H170.3L170.3,39.1z M175.4,42.5h-1.7l-1.9-5.7h1.6l1.2,3.9h0
	l1.2-3.9h1.5L175.4,42.5L175.4,42.5z M178.9,40c0,1,0.5,1.4,1.4,1.4c0.6,0,1.1-0.4,1.2-0.7h1.4c-0.4,1.3-1.4,1.9-2.7,1.9
	c-1.8,0-2.9-1.2-2.9-3c0-1.7,1.2-3,2.9-3c1.9,0,2.9,1.6,2.8,3.4L178.9,40L178.9,40z M181.4,39.1c-0.1-0.8-0.5-1.2-1.2-1.2
	c-1,0-1.3,0.8-1.3,1.2H181.4z M183.7,36.8h1.5v0.8h0c0.4-0.6,1.1-1,1.7-1c1.7,0,2.1,0.9,2.1,2.3v3.5h-1.6v-3.2c0-0.9-0.3-1.4-1-1.4
	c-0.8,0-1.2,0.5-1.2,1.6v3h-1.6C183.7,42.5,183.7,36.8,183.7,36.8z M191.9,36.8h1.1v1h-1.1v2.8c0,0.5,0.1,0.7,0.7,0.7
	c0.2,0,0.3,0,0.5,0v1.2c-0.2,0-0.6,0.1-0.9,0.1c-1,0-1.8-0.2-1.8-1.4v-3.4h-0.9v-1h0.9v-1.7h1.6L191.9,36.8L191.9,36.8z"/>
<g>
	<path class="st0" d="M7,8H0V1h22v7h-7v19H7V8z M23,1h22v7H31v3h14v6H31v3h14v7H23V1z M46,1h13c8.7,0,11.7,6.4,11.7,13
		c0,8-4.2,13-13.3,13H46V1z M54,20.4h3.2c5,0,5.7-4.1,5.7-6.5c0-1.6-0.5-6.2-6.3-6.2H54V20.4z"/>
	<g>
		<path class="st0" d="M83.1,17l-2.5-4l-2.4,4h-5.9l5.9-8l-5.7-8h5.9l2.2,3.9L82.9,1h5.9l-5.6,8l5.8,8H83.1z"/>
	</g>
</g>
<g>
	<path d="M98.1,18.8c0.1,1.5,0.4,2.6,1,3.6c1.1,1.7,3.1,2.6,6,2.6c1.3,0,2.4-0.2,3.5-0.6c2-0.7,3-2,3-3.9c0-1.4-0.4-2.4-1.3-3
		c-0.9-0.6-2.2-1.1-4.1-1.5l-3.4-0.8c-2.2-0.5-3.8-1.1-4.7-1.7c-1.6-1.1-2.4-2.7-2.4-4.9c0-2.3,0.8-4.3,2.4-5.8
		c1.6-1.5,3.8-2.2,6.7-2.2c2.6,0,4.9,0.6,6.8,1.9c1.9,1.3,2.8,3.5,2.8,6.3H111c-0.2-1.2-0.5-2.4-1.1-3.2c-1-1.4-2.8-2-5.2-2
		c-2,0-3.4,0.4-4.3,1.3C99.4,5.7,99,6.7,99,7.9c0,1.3,0.5,2.2,1.5,2.8c0.7,0.4,2.2,0.9,4.6,1.4l3.6,0.8c1.7,0.4,3,1,3.9,1.7
		c1.6,1.2,2.4,3,2.4,5.3c0,2.9-1,4.9-3.1,6.2s-4.4,1.9-7.1,1.9c-3.2,0-5.6-0.8-7.4-2.5c-1.8-1.6-2.7-3.7-2.6-6.4L98.1,18.8
		L98.1,18.8z M129.4,15.6c0.7-0.1,1.2-0.4,1.5-0.9c0.1-0.3,0.2-0.7,0.2-1.2c0-1.1-0.4-1.9-1.1-2.4c-0.8-0.5-1.9-0.7-3.3-0.7
		c-1.7,0-2.8,0.5-3.5,1.4c-0.4,0.5-0.6,1.2-0.8,2.2h-3c0.1-2.5,0.8-3.9,2.3-4.9c1.5-0.9,3.2-1.4,5.1-1.4c2.2,0,4,0.4,5.4,1.2
		c1.4,0.9,2,2.2,2,4v11c0,0.3,0.1,0.5,0.2,0.7s0.4,0.3,0.9,0.3c0.1,0,0.3,0,0.5,0l0.6-0.1v2.4c-0.5,0.1-0.9,0.2-1.2,0.3
		c-0.3,0-0.6,0-1.1,0c-1.1,0-1.9-0.4-2.4-1.2c-0.3-0.4-0.4-1-0.6-1.8c-0.6,0.9-1.6,1.6-2.8,2.2c-1.2,0.6-2.6,0.9-4,0.9
		c-1.8,0-3.2-0.5-4.3-1.6s-1.7-2.4-1.7-4c0-1.8,0.6-3.1,1.7-4.1s2.5-1.6,4.3-1.8L129.4,15.6L129.4,15.6z M122.7,24.2
		c0.7,0.5,1.5,0.8,2.4,0.8c1.1,0,2.2-0.3,3.2-0.8c1.8-0.9,2.6-2.3,2.6-4.2v-2.6c-0.2,0.2-0.8,0.5-1.4,0.6c-0.6,0.2-1.2,0.3-1.8,0.4
		l-1.9,0.2c-1.2,0.1-2,0.4-2.6,0.7c-1,0.5-1.5,1.4-1.5,2.6C121.7,23,122,23.7,122.7,24.2L122.7,24.2z M151.6,9.2
		c1.3,1,2.1,2.9,2.4,5.4h-3.1c-0.2-1.2-0.6-2.2-1.3-2.9c-0.7-0.8-1.7-1.2-3.2-1.2c-2,0-3.5,1-4.4,3c-0.6,1.3-0.9,2.9-0.9,4.8
		c0,1.9,0.4,3.5,1.2,4.8s2.1,2,3.8,2c1.3,0,2.4-0.4,3.1-1.2c0.8-0.8,1.3-2,1.6-3.3h3.1c-0.4,2.5-1.2,4.3-2.7,5.5
		c-1.4,1.1-3.2,1.7-5.4,1.7c-2.5,0-4.5-0.9-5.9-2.7c-1.5-1.8-2.2-4.1-2.2-6.8c0-3.3,0.8-5.9,2.4-7.8c1.6-1.9,3.7-2.8,6.2-2.8
		C148.5,7.6,150.2,8.1,151.6,9.2L151.6,9.2z M156.8,1h3.2v26h-3.2V1z M174.6,15.6c0.7-0.1,1.2-0.4,1.5-0.9c0.1-0.3,0.2-0.7,0.2-1.2
		c0-1.1-0.4-1.9-1.1-2.4c-0.8-0.5-1.9-0.7-3.3-0.7c-1.7,0-2.9,0.5-3.6,1.4c-0.4,0.5-0.6,1.3-0.8,2.3h-3c0.1-2.5,0.8-4,2.3-4.9
		c1.5-0.9,3.1-1.4,5.1-1.4c2.2,0,4.1,0.4,5.5,1.2c1.4,0.9,2.1,2.2,2.1,3.9v10.9c0,0.3,0,0.6,0.2,0.8s0.4,0.3,0.8,0.3
		c0.1,0,0.3,0,0.4,0l0.5-0.1v2.4c-0.5,0.1-0.8,0.2-1.1,0.3c-0.3,0-0.6,0-1.1,0c-1.1,0-1.9-0.4-2.4-1.2c-0.3-0.4-0.4-1-0.6-1.8
		c-0.7,0.9-1.6,1.6-2.8,2.2c-1.2,0.6-2.6,0.9-4,0.9c-1.8,0-3.2-0.5-4.3-1.6c-1.1-1.1-1.7-2.4-1.7-4c0-1.8,0.5-3.1,1.6-4.1
		s2.5-1.6,4.3-1.8L174.6,15.6L174.6,15.6z M167.9,24.2c0.7,0.5,1.5,0.8,2.4,0.8c1.1,0,2.2-0.3,3.3-0.8c1.8-0.9,2.7-2.3,2.7-4.2v-2.6
		c-0.5,0.2-0.9,0.5-1.5,0.6c-0.6,0.2-1.2,0.3-1.8,0.4l-1.9,0.2c-1.1,0.1-2,0.4-2.6,0.7c-1,0.5-1.5,1.4-1.5,2.6
		C166.9,23,167.3,23.7,167.9,24.2L167.9,24.2z M195.9,8h3.5l-3,8.3c-1.1,3.3-2.1,5.9-2.9,8c-1.8,4.8-3.1,7.8-3.9,8.9
		c-0.8,1.1-2.1,1.6-3.9,1.6c-0.4,0-0.8,0-1.1-0.1l-0.9-0.2v-2.9c0.7,0.2,1,0.2,1.2,0.3c0.2,0,0.5,0,0.7,0c0.6,0,1-0.1,1.3-0.3
		c0.3-0.2,0.5-0.4,0.7-0.7c0.1-0.1,0.3-0.6,0.6-1.5l0.8-2l-7-19.5h3.6l5.1,15.4L195.9,8L195.9,8z"/>
</g>
</svg>
