<?xml version="1.0" encoding="UTF-8" standalone="no"?>
<svg
   xmlns:dc="http://purl.org/dc/elements/1.1/"
   xmlns:cc="http://creativecommons.org/ns#"
   xmlns:rdf="http://www.w3.org/1999/02/22-rdf-syntax-ns#"
   xmlns:svg="http://www.w3.org/2000/svg"
   xmlns="http://www.w3.org/2000/svg"
   xmlns:sodipodi="http://sodipodi.sourceforge.net/DTD/sodipodi-0.dtd"
   xmlns:inkscape="http://www.inkscape.org/namespaces/inkscape"
   inkscape:version="1.0beta2 (2b71d25, 2019-12-03)"
   sodipodi:docname="GS-eng-sys-sci-h_white.svg"
   version="1.1"
   id="svg2"
   xml:space="preserve"
   width="470.93411"
   height="84.304001"
   viewBox="0 0 470.93411 84.303999"><sodipodi:namedview
     fit-margin-bottom="0"
     fit-margin-right="0"
     fit-margin-left="0"
     fit-margin-top="0"
     showguides="false"
     inkscape:current-layer="svg2"
     inkscape:window-maximized="0"
     inkscape:window-y="23"
     inkscape:window-x="0"
     inkscape:cy="32.665459"
     inkscape:cx="404.44914"
     inkscape:zoom="1.3284027"
     showgrid="false"
     id="namedview902"
     inkscape:window-height="652"
     inkscape:window-width="1280"
     inkscape:pageshadow="2"
     inkscape:pageopacity="0"
     guidetolerance="10"
     gridtolerance="10"
     objecttolerance="10"
     borderopacity="1"
     inkscape:document-rotation="0"
     bordercolor="#666666"
     pagecolor="#ffffff" /><metadata
     id="metadata8"><rdf:RDF><cc:Work
         rdf:about=""><dc:format>image/svg+xml</dc:format><dc:type
           rdf:resource="http://purl.org/dc/dcmitype/StillImage" /><dc:title></dc:title></cc:Work></rdf:RDF></metadata><defs
     id="defs6"><clipPath
       clipPathUnits="userSpaceOnUse"
       id="clipPath20"><path
         inkscape:connector-curvature="0"
         d="M 0,99.2126 H 417.795 V 0 H 0 Z"
         id="path18" /></clipPath><clipPath
       clipPathUnits="userSpaceOnUse"
       id="clipPath128"><path
         inkscape:connector-curvature="0"
         d="M 0,0 H 417.795 V 99.213 H 0 Z"
         id="path126" /></clipPath></defs><g
     style="fill:#ffffff"
     id="g10"
     transform="matrix(1.3333333,0,0,-1.3333333,-18.991733,98.807198)"><g
       style="fill:#ffffff"
       id="g12"><g
         style="fill:#ffffff"
         id="g14"><g
           style="fill:#ffffff"
           id="g16"
           clip-path="url(#clipPath20)"><g
             style="fill:#ffffff"
             id="g22"
             transform="translate(178.806,14.1603)"><path
               inkscape:connector-curvature="0"
               d="m 0,0 c -0.07,0 -0.14,0.01 -0.2,0.04 -0.06,0.02 -0.11,0.061 -0.16,0.11 -0.05,0.04 -0.09,0.1 -0.11,0.16 -0.03,0.06 -0.04,0.13 -0.04,0.19 0,0.141 0.06,0.271 0.15,0.36 C -0.22,1 0,1.04 0.19,0.97 0.25,0.94 0.3,0.9 0.35,0.86 0.44,0.771 0.5,0.641 0.5,0.5 0.5,0.37 0.44,0.24 0.35,0.15 0.25,0.05 0.13,0 0,0"
               style="fill:#ffffff;fill-opacity:1;fill-rule:nonzero;stroke:none"
               id="path24" /></g><g
             style="fill:#ffffff"
             id="g26"
             transform="translate(178.2963,59.8907)"><path
               inkscape:connector-curvature="0"
               d="M 0,0 C 0,0.28 0.23,0.5 0.5,0.5 0.78,0.5 1.01,0.28 1.01,0 1.01,-0.28 0.78,-0.5 0.5,-0.5 0.23,-0.5 0,-0.28 0,0 m 0,-1.96 c 0,0.27 0.23,0.5 0.5,0.5 0.28,0 0.51,-0.23 0.51,-0.5 0,-0.28 -0.23,-0.51 -0.51,-0.51 -0.27,0 -0.5,0.23 -0.5,0.51 m 0,-1.97 c 0,0.28 0.23,0.5 0.5,0.5 0.28,0 0.51,-0.22 0.51,-0.5 0,-0.28 -0.23,-0.5 -0.51,-0.5 -0.27,0 -0.5,0.22 -0.5,0.5 M 0,-5.9 c 0,0.28 0.23,0.51 0.5,0.51 0.28,0 0.51,-0.23 0.51,-0.51 0,-0.27 -0.23,-0.5 -0.51,-0.5 -0.27,0 -0.5,0.23 -0.5,0.5 m 0,-1.96 c 0,0.27 0.23,0.5 0.5,0.5 0.28,0 0.51,-0.23 0.51,-0.5 0,-0.28 -0.23,-0.5 -0.51,-0.5 -0.27,0 -0.5,0.22 -0.5,0.5 m 0,-1.97 c 0,0.28 0.23,0.5 0.5,0.5 0.28,0 0.51,-0.22 0.51,-0.5 0,-0.27 -0.23,-0.5 -0.51,-0.5 -0.27,0 -0.5,0.23 -0.5,0.5 m 0,-1.97 c 0,0.279 0.23,0.509 0.5,0.509 0.28,0 0.51,-0.23 0.51,-0.509 0,-0.27 -0.23,-0.5 -0.51,-0.5 -0.27,0 -0.5,0.23 -0.5,0.5 m 0,-1.96 c 0,0.28 0.23,0.5 0.5,0.5 0.28,0 0.51,-0.22 0.51,-0.5 0,-0.281 -0.23,-0.5 -0.51,-0.5 -0.27,0 -0.5,0.219 -0.5,0.5 m 0,-1.97 c 0,0.28 0.23,0.51 0.5,0.51 0.28,0 0.51,-0.23 0.51,-0.51 0,-0.27 -0.23,-0.5 -0.51,-0.5 -0.27,0 -0.5,0.23 -0.5,0.5 m 0,-1.96 c 0,0.28 0.23,0.5 0.5,0.5 0.28,0 0.51,-0.22 0.51,-0.5 0,-0.28 -0.23,-0.5 -0.51,-0.5 -0.27,0 -0.5,0.22 -0.5,0.5 m 0,-1.97 c 0,0.28 0.23,0.5 0.5,0.5 0.28,0 0.51,-0.22 0.51,-0.5 0,-0.28 -0.23,-0.5 -0.51,-0.5 -0.27,0 -0.5,0.22 -0.5,0.5 m 0,-1.96 c 0,0.27 0.23,0.5 0.5,0.5 0.28,0 0.51,-0.23 0.51,-0.5 0,-0.28 -0.23,-0.51 -0.51,-0.51 -0.27,0 -0.5,0.23 -0.5,0.51 m 0,-1.97 c 0,0.28 0.23,0.5 0.5,0.5 0.28,0 0.51,-0.22 0.51,-0.5 0,-0.28 -0.23,-0.5 -0.51,-0.5 -0.27,0 -0.5,0.22 -0.5,0.5 m 0,-1.97 c 0,0.28 0.23,0.51 0.5,0.51 0.28,0 0.51,-0.23 0.51,-0.51 0,-0.27 -0.23,-0.5 -0.51,-0.5 -0.27,0 -0.5,0.23 -0.5,0.5 m 0,-1.961 c 0,0.271 0.23,0.5 0.5,0.5 0.28,0 0.51,-0.229 0.51,-0.5 0,-0.279 -0.23,-0.5 -0.51,-0.5 -0.27,0 -0.5,0.221 -0.5,0.5 m 0,-1.969 c 0,0.28 0.23,0.5 0.5,0.5 0.28,0 0.51,-0.22 0.51,-0.5 0,-0.271 -0.23,-0.5 -0.51,-0.5 -0.27,0 -0.5,0.229 -0.5,0.5 m 0,-1.96 c 0,0.269 0.23,0.5 0.5,0.5 0.28,0 0.51,-0.231 0.51,-0.5 0,-0.28 -0.23,-0.51 -0.51,-0.51 -0.27,0 -0.5,0.23 -0.5,0.51 m 0,-1.97 c 0,0.279 0.23,0.5 0.5,0.5 0.28,0 0.51,-0.221 0.51,-0.5 0,-0.28 -0.23,-0.5 -0.51,-0.5 -0.27,0 -0.5,0.22 -0.5,0.5 m 0,-1.971 c 0,0.281 0.23,0.511 0.5,0.511 0.28,0 0.51,-0.23 0.51,-0.511 0,-0.269 -0.23,-0.5 -0.51,-0.5 -0.27,0 -0.5,0.231 -0.5,0.5 m 0,-1.96 c 0,0.281 0.23,0.5 0.5,0.5 0.28,0 0.51,-0.219 0.51,-0.5 0,-0.279 -0.23,-0.5 -0.51,-0.5 -0.27,0 -0.5,0.221 -0.5,0.5 m 0,-1.969 c 0,0.28 0.23,0.509 0.5,0.509 0.28,0 0.51,-0.229 0.51,-0.509 0,-0.27 -0.23,-0.5 -0.51,-0.5 -0.27,0 -0.5,0.23 -0.5,0.5 m 0,-1.96 c 0,0.269 0.23,0.5 0.5,0.5 0.28,0 0.51,-0.231 0.51,-0.5 0,-0.281 -0.23,-0.51 -0.51,-0.51 -0.27,0 -0.5,0.229 -0.5,0.51 m 0,-1.97 c 0,0.279 0.23,0.5 0.5,0.5 0.28,0 0.51,-0.221 0.51,-0.5 0,-0.28 -0.23,-0.5 -0.51,-0.5 -0.27,0 -0.5,0.22 -0.5,0.5"
               style="fill:#ffffff;fill-opacity:1;fill-rule:nonzero;stroke:none"
               id="path28" /></g><g
             style="fill:#ffffff"
             id="g30"
             transform="translate(178.7963,61.3605)"><path
               inkscape:connector-curvature="0"
               d="m 0,0 c -0.13,0 -0.26,0.05 -0.35,0.14 -0.09,0.1 -0.15,0.22 -0.15,0.36 0,0.13 0.06,0.26 0.15,0.35 0.04,0.05 0.1,0.09 0.16,0.11 0.12,0.05 0.26,0.05 0.39,0 C 0.26,0.94 0.31,0.9 0.36,0.85 0.45,0.76 0.51,0.63 0.51,0.5 0.51,0.36 0.45,0.24 0.36,0.14 0.26,0.05 0.13,0 0,0"
               style="fill:#ffffff;fill-opacity:1;fill-rule:nonzero;stroke:none"
               id="path32" /></g><g
             style="fill:#ffffff"
             id="g34"
             transform="translate(160.3171,66.7393)"><path
               inkscape:connector-curvature="0"
               d="m 0,0 c -2.345,0 -4.247,-1.901 -4.247,-4.246 0,-2.346 1.902,-4.247 4.247,-4.247 2.345,0 4.245,1.901 4.245,4.247 C 4.245,-1.901 2.345,0 0,0"
               style="fill:#ffffff;fill-opacity:1;fill-rule:nonzero;stroke:none"
               id="path36" /></g><g
             style="fill:#ffffff"
             id="g38"
             transform="translate(151.1651,51.8729)"><path
               inkscape:connector-curvature="0"
               d="M 0,0 C 1.45,0 2.626,1.176 2.626,2.628 2.626,4.078 1.45,5.253 0,5.253 -1.45,5.253 -2.626,4.078 -2.626,2.628 -2.626,1.176 -1.45,0 0,0"
               style="fill:#ffffff;fill-opacity:1;fill-rule:nonzero;stroke:none"
               id="path40" /></g><path
             inkscape:connector-curvature="0"
             d="M 55.324,47.414 H 52.5 V 31.511 h 2.824 z"
             style="fill:#ffffff;fill-opacity:1;fill-rule:nonzero;stroke:none"
             id="path42" /><g
             style="fill:#ffffff"
             id="g44"
             transform="translate(84.5415,47.7409)"><path
               inkscape:connector-curvature="0"
               d="m 0,0 c -4.355,0 -7.64,-3.566 -7.64,-8.294 0,-4.728 3.413,-8.293 7.938,-8.293 2.672,0 4.686,0.918 6.529,2.972 l 0.179,0.2 -1.819,1.629 -0.179,-0.187 c -1.359,-1.423 -2.837,-2.087 -4.652,-2.087 -2.692,0 -4.713,1.862 -5.108,4.666 H 7.374 L 7.4,-9.155 c 0.031,0.282 0.031,0.527 0.031,0.743 C 7.431,-3.381 4.444,0 0,0 m -4.752,-7.164 c 0.387,2.781 2.284,4.696 4.692,4.696 2.983,0 4.325,-2.373 4.608,-4.696 z"
               style="fill:#ffffff;fill-opacity:1;fill-rule:nonzero;stroke:none"
               id="path46" /></g><g
             style="fill:#ffffff"
             id="g48"
             transform="translate(25.3908,31.5107)"><path
               inkscape:connector-curvature="0"
               d="M 0,0 H 2.795 V 15.903 H 0 V 6.837 C 0,4.159 -1.784,2.29 -4.34,2.29 c -2.494,0 -3.983,1.632 -3.983,4.369 v 9.244 h -2.824 v -9.81 c 0,-3.899 2.416,-6.42 6.153,-6.42 2.092,0 3.734,0.793 4.994,2.418 z"
               style="fill:#ffffff;fill-opacity:1;fill-rule:nonzero;stroke:none"
               id="path50" /></g><g
             style="fill:#ffffff"
             id="g52"
             transform="translate(44.5337,40.7553)"><path
               inkscape:connector-curvature="0"
               d="m 0,0 v -9.245 h 2.824 v 9.81 c 0,3.9 -2.416,6.421 -6.153,6.421 -2.087,0 -3.762,-0.809 -4.994,-2.405 v 2.078 h -2.824 V -9.245 h 2.824 v 9.067 c 0,2.678 1.784,4.547 4.34,4.547 C -1.489,4.369 0,2.736 0,0"
               style="fill:#ffffff;fill-opacity:1;fill-rule:nonzero;stroke:none"
               id="path54" /></g><g
             style="fill:#ffffff"
             id="g56"
             transform="translate(68.3109,31.3924)"><path
               inkscape:connector-curvature="0"
               d="M 0,0 6.919,16.021 H 3.865 L -1.157,3.712 -6.149,16.021 H -9.263 L -2.375,0 Z"
               style="fill:#ffffff;fill-opacity:1;fill-rule:nonzero;stroke:none"
               id="path58" /></g><g
             style="fill:#ffffff"
             id="g60"
             transform="translate(98.8685,37.9012)"><path
               inkscape:connector-curvature="0"
               d="M 0,0 C 0,4.118 2.287,6.778 5.826,6.778 H 6.273 V 9.769 L 6.016,9.779 C 3.548,9.882 1.36,8.599 0,6.331 V 9.513 H -2.824 V -6.39 H 0 Z"
               style="fill:#ffffff;fill-opacity:1;fill-rule:nonzero;stroke:none"
               id="path62" /></g><g
             style="fill:#ffffff"
             id="g64"
             transform="translate(138.0699,31.2435)"><path
               inkscape:connector-curvature="0"
               d="M 0,0 C 1.07,0 1.988,0.217 2.888,0.685 L 3.033,0.759 V 3.31 L 2.649,3.125 C 1.898,2.763 1.286,2.615 0.536,2.615 c -1.583,0 -2.319,0.728 -2.319,2.29 v 8.709 h 4.876 v 2.556 h -4.876 v 5.245 L -4.607,19.856 V 16.17 H -7.59 v -2.556 h 2.983 V 4.607 C -4.607,1.637 -2.97,0 0,0"
               style="fill:#ffffff;fill-opacity:1;fill-rule:nonzero;stroke:none"
               id="path66" /></g><g
             style="fill:#ffffff"
             id="g68"
             transform="translate(151.6324,31.1544)"><path
               inkscape:connector-curvature="0"
               d="M 0,0 C 2.672,0 4.688,0.917 6.53,2.972 L 6.709,3.172 4.89,4.8 4.711,4.614 C 3.351,3.19 1.873,2.526 0.06,2.526 c -2.693,0 -4.714,1.863 -5.11,4.667 H 7.075 l 0.027,0.238 c 0.033,0.283 0.033,0.528 0.033,0.743 0,5.032 -2.987,8.413 -7.433,8.413 -4.355,0 -7.638,-3.566 -7.638,-8.294 C -7.936,3.565 -4.525,0 0,0 m -0.356,14.119 c 2.981,0 4.323,-2.373 4.607,-4.696 H -5.05 c 0.387,2.781 2.284,4.696 4.694,4.696"
               style="fill:#ffffff;fill-opacity:1;fill-rule:nonzero;stroke:none"
               id="path70" /></g><g
             style="fill:#ffffff"
             id="g72"
             transform="translate(114.6413,40.8032)"><path
               inkscape:connector-curvature="0"
               d="m 0,0 -0.057,0.018 c -1.906,0.579 -3.707,1.128 -3.707,2.43 0,1.174 1.087,1.963 2.706,1.963 1.397,0 2.962,-0.512 4.402,-1.444 L 3.576,2.817 4.891,4.998 4.677,5.14 c -1.648,1.089 -3.77,1.738 -5.676,1.738 -3.238,0 -5.5,-1.919 -5.5,-4.666 v -0.06 c 0,-3.098 3.051,-3.966 5.28,-4.597 2.061,-0.577 3.638,-1.124 3.638,-2.507 0,-1.299 -1.171,-2.17 -2.913,-2.17 -1.712,0 -3.495,0.66 -5.16,1.908 l -0.22,0.164 -1.464,-2.064 0.195,-0.157 c 1.766,-1.429 4.267,-2.319 6.531,-2.319 3.43,0 5.737,1.96 5.737,4.876 v 0.06 C 5.125,-1.538 2.04,-0.612 0,0"
               style="fill:#ffffff;fill-opacity:1;fill-rule:nonzero;stroke:none"
               id="path74" /></g><path
             inkscape:connector-curvature="0"
             d="m 127.107,47.414 h -2.824 V 31.511 h 2.824 z"
             style="fill:#ffffff;fill-opacity:1;fill-rule:nonzero;stroke:none"
             id="path76" /><g
             style="fill:#ffffff"
             id="g78"
             transform="translate(30.1107,26.38)"><path
               inkscape:connector-curvature="0"
               d="m 0,0 -5.195,-12.207 h 2.719 l 1.108,2.718 h 5.125 l 1.108,-2.718 H 7.653 L 2.459,0 Z m -0.416,-7.133 1.611,3.93 1.61,-3.93 z"
               style="fill:#ffffff;fill-opacity:1;fill-rule:nonzero;stroke:none"
               id="path80" /></g><g
             style="fill:#ffffff"
             id="g82"
             transform="translate(139.178,26.38)"><path
               inkscape:connector-curvature="0"
               d="m 0,0 -5.195,-12.207 h 2.719 l 1.108,2.718 h 5.124 l 1.109,-2.718 H 7.653 L 2.458,0 Z m -0.416,-7.133 1.611,3.93 1.61,-3.93 z"
               style="fill:#ffffff;fill-opacity:1;fill-rule:nonzero;stroke:none"
               id="path84" /></g><g
             style="fill:#ffffff"
             id="g86"
             transform="translate(152.8542,21.4283)"><path
               inkscape:connector-curvature="0"
               d="m 0,0 -2.892,4.865 h -3.117 l 4.658,-7.341 v -4.779 h 2.666 v 4.83 l 4.658,7.29 h -3.03 z"
               style="fill:#ffffff;fill-opacity:1;fill-rule:nonzero;stroke:none"
               id="path88" /></g><g
             style="fill:#ffffff"
             id="g90"
             transform="translate(19.2555,26.2929)"><path
               inkscape:connector-curvature="0"
               d="m 0,0 h -4.952 v -12.12 h 2.667 v 3.635 h 2.025 c 2.719,0 4.901,1.455 4.901,4.262 v 0.032 C 4.641,-1.713 2.892,0 0,0 m 1.94,-4.276 c 0,-1.039 -0.779,-1.836 -2.113,-1.836 h -2.112 v 3.705 h 2.06 c 1.333,0 2.165,-0.639 2.165,-1.835 z"
               style="fill:#ffffff;fill-opacity:1;fill-rule:nonzero;stroke:none"
               id="path92" /></g><g
             style="fill:#ffffff"
             id="g94"
             transform="translate(114.6956,16.424)"><path
               inkscape:connector-curvature="0"
               d="m 0,0 c -2.078,0 -3.515,1.731 -3.515,3.809 v 0.035 c 0,2.078 1.472,3.774 3.515,3.774 1.212,0 2.164,-0.519 3.099,-1.368 l 1.697,1.957 c -1.126,1.108 -2.493,1.869 -4.78,1.869 -3.721,0 -6.319,-2.821 -6.319,-6.267 V 3.775 c 0,-3.481 2.649,-6.234 6.216,-6.234 2.338,0 3.722,0.831 4.97,2.165 L 3.184,1.42 C 2.233,0.554 1.384,0 0,0"
               style="fill:#ffffff;fill-opacity:1;fill-rule:nonzero;stroke:none"
               id="path96" /></g><g
             style="fill:#ffffff"
             id="g98"
             transform="translate(87.5255,21.4283)"><path
               inkscape:connector-curvature="0"
               d="m 0,0 c -2.094,0.536 -2.616,0.796 -2.616,1.593 v 0.033 c 0,0.59 0.538,1.059 1.561,1.059 1.02,0 2.078,-0.451 3.149,-1.197 L 3.48,3.497 C 2.251,4.483 0.745,5.039 -1.021,5.039 -3.497,5.039 -5.264,3.584 -5.264,1.384 V 1.35 c 0,-2.405 1.576,-3.081 4.018,-3.706 2.025,-0.519 2.439,-0.865 2.439,-1.54 v -0.035 c 0,-0.71 -0.657,-1.142 -1.747,-1.142 -1.386,0 -2.529,0.572 -3.619,1.471 l -1.576,-1.887 c 1.455,-1.299 3.308,-1.94 5.142,-1.94 2.616,0 4.451,1.351 4.451,3.758 v 0.034 C 3.844,-1.524 2.458,-0.641 0,0"
               style="fill:#ffffff;fill-opacity:1;fill-rule:nonzero;stroke:none"
               id="path100" /></g><g
             style="fill:#ffffff"
             id="g102"
             transform="translate(125.6725,26.2929)"><path
               inkscape:connector-curvature="0"
               d="m 0,0 h -2.666 v -12.12 h 8.709 v 2.424 H 0 Z"
               style="fill:#ffffff;fill-opacity:1;fill-rule:nonzero;stroke:none"
               id="path104" /></g><g
             style="fill:#ffffff"
             id="g106"
             transform="translate(98.8854,26.38)"><path
               inkscape:connector-curvature="0"
               d="m 0,0 -5.193,-12.207 h 2.717 l 1.108,2.718 h 5.126 l 1.108,-2.718 H 7.653 L 2.458,0 Z m -0.416,-7.133 1.611,3.93 1.61,-3.93 z"
               style="fill:#ffffff;fill-opacity:1;fill-rule:nonzero;stroke:none"
               id="path108" /></g><path
             inkscape:connector-curvature="0"
             d="m 73.657,18.277 h 5.333 v 2.528 h -5.333 z"
             style="fill:#ffffff;fill-opacity:1;fill-rule:nonzero;stroke:none"
             id="path110" /><g
             style="fill:#ffffff"
             id="g112"
             transform="translate(51.0436,22.2585)"><path
               inkscape:connector-curvature="0"
               d="m 0,0 v 0.035 c 0,2.493 -1.715,3.999 -4.57,3.999 h -5.542 V -8.085 h 2.666 v 3.878 h 2.096 l 2.598,-3.878 h 3.115 l -2.96,4.328 C -1.055,-3.186 0,-1.956 0,0 m -2.701,-0.138 c 0,-1.021 -0.745,-1.715 -2.044,-1.715 h -2.701 v 3.481 h 2.65 c 1.299,0 2.095,-0.589 2.095,-1.732 z"
               style="fill:#ffffff;fill-opacity:1;fill-rule:nonzero;stroke:none"
               id="path114" /></g><path
             inkscape:connector-curvature="0"
             d="m 54.871,14.173 h 2.667 v 12.12 h -2.667 z"
             style="fill:#ffffff;fill-opacity:1;fill-rule:nonzero;stroke:none"
             id="path116" /><g
             style="fill:#ffffff"
             id="g118"
             transform="translate(66.7831,21.4283)"><path
               inkscape:connector-curvature="0"
               d="m 0,0 c -2.096,0.536 -2.616,0.796 -2.616,1.593 v 0.033 c 0,0.59 0.538,1.059 1.559,1.059 1.023,0 2.078,-0.451 3.151,-1.197 L 3.479,3.497 C 2.251,4.483 0.743,5.039 -1.023,5.039 -3.498,5.039 -5.264,3.584 -5.264,1.384 V 1.35 c 0,-2.405 1.575,-3.081 4.016,-3.706 2.027,-0.519 2.442,-0.865 2.442,-1.54 v -0.035 c 0,-0.71 -0.658,-1.142 -1.748,-1.142 -1.386,0 -2.528,0.572 -3.618,1.471 l -1.577,-1.887 c 1.455,-1.299 3.306,-1.94 5.142,-1.94 2.614,0 4.451,1.351 4.451,3.758 v 0.034 C 3.844,-1.524 2.458,-0.641 0,0"
               style="fill:#ffffff;fill-opacity:1;fill-rule:nonzero;stroke:none"
               id="path120" /></g></g></g></g><g
       style="fill:#ffffff"
       id="g122"><g
         style="fill:#ffffff"
         id="g124"
         clip-path="url(#clipPath128)"><g
           style="fill:#ffffff"
           id="g130"
           transform="translate(196.9404,24.6374)"><path
             inkscape:connector-curvature="0"
             d="m 0,0 c 0,1.28 1.16,2.28 2.98,2.28 1.44,0 2.74,-0.46 4.04,-1.52 L 7.94,1.98 C 6.52,3.12 5.06,3.7 3.02,3.7 c -2.66,0 -4.6,-1.6 -4.6,-3.84 0,-2.32 1.48,-3.36 4.7,-4.06 2.94,-0.62 3.64,-1.36 3.64,-2.68 0,-1.42 -1.24,-2.4 -3.12,-2.4 -1.94,0 -3.34,0.66 -4.8,1.98 l -0.98,-1.16 c 1.68,-1.5 3.5,-2.24 5.72,-2.24 2.78,0 4.78,1.56 4.78,3.98 0,2.16 -1.44,3.3 -4.56,3.98 C 0.72,-2.08 0,-1.34 0,0 m 20.402,-0.16 h -1.64 l -3.32,-8.62 -3.76,8.62 h -1.7 l 4.7,-10.3 c -0.62,-1.46 -1.2,-1.94 -2.12,-1.94 -0.66,0 -1.12,0.12 -1.62,0.38 l -0.52,-1.22 c 0.7,-0.34 1.34,-0.52 2.2,-0.52 1.56,0 2.56,0.78 3.44,2.92 z m 9.14,-7.44 v 0.04 c 0,1.86 -1.72,2.48 -3.32,2.96 -1.38,0.42 -2.66,0.8 -2.66,1.78 v 0.04 c 0,0.86 0.78,1.5 2,1.5 1,0 2.1,-0.38 3.06,-1 l 0.7,1.16 c -1.06,0.7 -2.46,1.14 -3.72,1.14 -2.04,0 -3.52,-1.18 -3.52,-2.96 v -0.04 c 0,-1.9 1.8,-2.46 3.42,-2.92 1.36,-0.38 2.58,-0.78 2.58,-1.82 v -0.04 c 0,-1 -0.9,-1.64 -2.14,-1.64 -1.22,0 -2.46,0.48 -3.58,1.32 l -0.78,-1.1 c 1.16,-0.94 2.8,-1.52 4.28,-1.52 2.06,0 3.68,1.14 3.68,3.1 m 4.739,6.08 h 3.28 v 1.36 h -3.28 v 3.12 h -1.54 v -3.12 h -1.44 v -1.36 h 1.44 v -6.24 c 0,-2.1 1.26,-2.92 2.92,-2.92 0.74,0 1.32,0.16 1.86,0.44 v 1.32 c -0.54,-0.26 -0.98,-0.36 -1.5,-0.36 -1.04,0 -1.74,0.46 -1.74,1.72 z m 6.622,-4.38 h 8.2 c 0.02,0.18 0.02,0.34 0.02,0.48 0,3.04 -1.76,5.48 -4.82,5.48 -2.86,0 -4.96,-2.4 -4.96,-5.4 0,-3.22 2.32,-5.4 5.16,-5.4 1.96,0 3.22,0.78 4.26,1.94 l -0.96,0.86 c -0.84,-0.88 -1.84,-1.46 -3.26,-1.46 -1.82,0 -3.42,1.26 -3.64,3.5 m 0,1.14 c 0.2,2.02 1.56,3.52 3.36,3.52 2.06,0 3.14,-1.64 3.3,-3.52 z M 60.023,-2 c -0.56,1.16 -1.64,2.06 -3.32,2.06 -1.74,0 -2.66,-0.94 -3.34,-1.96 v 1.74 h -1.54 V -10.5 h 1.54 v 5.9 c 0,1.9 1.24,3.26 2.88,3.26 1.64,0 2.66,-1.14 2.66,-3.08 v -6.08 h 1.52 v 5.96 c 0,2.04 1.3,3.2 2.86,3.2 1.68,0 2.68,-1.12 2.68,-3.12 v -6.04 h 1.54 v 6.4 c 0,2.56 -1.46,4.16 -3.84,4.16 -1.8,0 -2.9,-0.92 -3.64,-2.06 m 17.92,-5.6 v 0.04 c 0,1.86 -1.72,2.48 -3.32,2.96 -1.38,0.42 -2.66,0.8 -2.66,1.78 v 0.04 c 0,0.86 0.78,1.5 2,1.5 1,0 2.1,-0.38 3.06,-1 l 0.7,1.16 c -1.06,0.7 -2.46,1.14 -3.72,1.14 -2.04,0 -3.52,-1.18 -3.52,-2.96 v -0.04 c 0,-1.9 1.8,-2.46 3.42,-2.92 1.36,-0.38 2.58,-0.78 2.58,-1.82 v -0.04 c 0,-1 -0.9,-1.64 -2.14,-1.64 -1.22,0 -2.46,0.48 -3.58,1.32 l -0.78,-1.1 c 1.16,-0.94 2.8,-1.52 4.28,-1.52 2.06,0 3.68,1.14 3.68,3.1 M 88.282,0 c 0,1.28 1.16,2.28 2.98,2.28 1.44,0 2.74,-0.46 4.04,-1.52 l 0.92,1.22 c -1.42,1.14 -2.88,1.72 -4.92,1.72 -2.66,0 -4.6,-1.6 -4.6,-3.84 0,-2.32 1.48,-3.36 4.7,-4.06 2.94,-0.62 3.64,-1.36 3.64,-2.68 0,-1.42 -1.24,-2.4 -3.12,-2.4 -1.94,0 -3.34,0.66 -4.8,1.98 l -0.98,-1.16 c 1.68,-1.5 3.5,-2.24 5.72,-2.24 2.78,0 4.78,1.56 4.78,3.98 0,2.16 -1.44,3.3 -4.56,3.98 -3.08,0.66 -3.8,1.4 -3.8,2.74 m 20.2,-8.74 -0.98,0.92 c -0.82,-0.88 -1.84,-1.54 -3.16,-1.54 -2.16,0 -3.8,1.78 -3.8,4.04 0,2.24 1.6,4.02 3.7,4.02 1.4,0 2.32,-0.7 3.14,-1.56 l 1.02,1.08 c -0.96,1.02 -2.18,1.84 -4.14,1.84 -3.02,0 -5.3,-2.48 -5.3,-5.42 0,-2.92 2.28,-5.38 5.3,-5.38 1.94,0 3.18,0.84 4.22,2 m 4.34,12.54 h -1.76 V 2.1 h 1.76 z m -0.12,-3.96 h -1.54 V -10.5 h 1.54 z m 4.5,-5.74 h 8.2 c 0.02,0.18 0.02,0.34 0.02,0.48 0,3.04 -1.76,5.48 -4.82,5.48 -2.86,0 -4.96,-2.4 -4.96,-5.4 0,-3.22 2.32,-5.4 5.16,-5.4 1.96,0 3.22,0.78 4.26,1.94 l -0.96,0.86 c -0.84,-0.88 -1.84,-1.46 -3.26,-1.46 -1.82,0 -3.42,1.26 -3.64,3.5 m 0,1.14 c 0.2,2.02 1.56,3.52 3.36,3.52 2.06,0 3.14,-1.64 3.3,-3.52 z m 12.46,0.18 c 0,1.94 1.32,3.24 3.1,3.24 1.82,0 2.86,-1.2 2.86,-3.12 v -6.04 h 1.54 v 6.42 c 0,2.46 -1.46,4.14 -3.96,4.14 -1.78,0 -2.86,-0.9 -3.54,-2.02 v 1.8 h -1.54 V -10.5 h 1.54 z m 19.66,-4.16 -0.98,0.92 c -0.82,-0.88 -1.84,-1.54 -3.16,-1.54 -2.16,0 -3.8,1.78 -3.8,4.04 0,2.24 1.6,4.02 3.7,4.02 1.4,0 2.32,-0.7 3.14,-1.56 l 1.02,1.08 c -0.96,1.02 -2.18,1.84 -4.14,1.84 -3.02,0 -5.3,-2.48 -5.3,-5.42 0,-2.92 2.28,-5.38 5.3,-5.38 1.94,0 3.18,0.84 4.22,2 m 3.162,2.84 h 8.2 c 0.02,0.18 0.02,0.34 0.02,0.48 0,3.04 -1.76,5.48 -4.82,5.48 -2.86,0 -4.96,-2.4 -4.96,-5.4 0,-3.22 2.32,-5.4 5.16,-5.4 1.96,0 3.22,0.78 4.26,1.94 l -0.96,0.86 c -0.84,-0.88 -1.84,-1.46 -3.26,-1.46 -1.82,0 -3.42,1.26 -3.64,3.5 m 0,1.14 c 0.2,2.02 1.56,3.52 3.36,3.52 2.06,0 3.14,-1.64 3.3,-3.52 z m 18.02,-2.84 v 0.04 c 0,1.86 -1.72,2.48 -3.32,2.96 -1.38,0.42 -2.66,0.8 -2.66,1.78 v 0.04 c 0,0.86 0.78,1.5 2,1.5 1,0 2.1,-0.38 3.06,-1 l 0.7,1.16 c -1.06,0.7 -2.46,1.14 -3.72,1.14 -2.04,0 -3.52,-1.18 -3.52,-2.96 v -0.04 c 0,-1.9 1.8,-2.46 3.42,-2.92 1.36,-0.38 2.58,-0.78 2.58,-1.82 v -0.04 c 0,-1 -0.9,-1.64 -2.14,-1.64 -1.22,0 -2.46,0.48 -3.58,1.32 l -0.78,-1.1 c 1.16,-0.94 2.8,-1.52 4.28,-1.52 2.06,0 3.68,1.14 3.68,3.1"
             style="fill:#ffffff;fill-opacity:1;fill-rule:nonzero;stroke:none"
             id="path132" /></g><g
           style="fill:#ffffff"
           id="g134"
           transform="translate(205.8404,52.1374)"><path
             inkscape:connector-curvature="0"
             d="M 0,0 H -10.12 V -14 H 0.1 v 1.44 h -8.64 v 4.9 h 7.64 v 1.44 h -7.64 v 4.78 H 0 Z m 4.56,-8.08 c 0,1.94 1.32,3.24 3.1,3.24 1.82,0 2.86,-1.2 2.86,-3.12 V -14 h 1.54 v 6.42 c 0,2.46 -1.46,4.14 -3.96,4.14 -1.78,0 -2.86,-0.9 -3.54,-2.02 v 1.8 H 3.02 V -14 h 1.54 z m 20.62,-4.12 v 8.54 h -1.54 v -1.86 c -0.84,1.12 -2.1,2.08 -4.04,2.08 -2.46,0 -4.86,-1.86 -4.86,-4.9 0,-3.02 2.38,-4.86 4.86,-4.86 1.9,0 3.16,0.98 4.06,2.18 v -1.22 c 0,-2.42 -1.48,-3.68 -3.76,-3.68 -1.48,0 -2.8,0.46 -3.98,1.32 l -0.7,-1.2 c 1.38,-0.96 2.98,-1.44 4.7,-1.44 3.18,0 5.26,1.7 5.26,5.04 m -1.48,3.88 c 0,-2.12 -1.84,-3.52 -3.8,-3.52 -1.92,0 -3.58,1.42 -3.58,3.54 0,2.16 1.62,3.5 3.58,3.5 1.96,0 3.8,-1.38 3.8,-3.52 m 6.72,8.62 h -1.76 v -1.7 h 1.76 z M 30.3,-3.66 H 28.76 V -14 h 1.54 z m 5.119,-4.42 c 0,1.94 1.32,3.24 3.1,3.24 1.82,0 2.86,-1.2 2.86,-3.12 V -14 h 1.54 v 6.42 c 0,2.46 -1.46,4.14 -3.96,4.14 -1.78,0 -2.86,-0.9 -3.54,-2.02 v 1.8 h -1.54 V -14 h 1.54 z m 11.7,-1.32 h 8.2 c 0.02,0.18 0.02,0.34 0.02,0.48 0,3.04 -1.76,5.48 -4.82,5.48 -2.86,0 -4.96,-2.4 -4.96,-5.4 0,-3.22 2.32,-5.4 5.16,-5.4 1.96,0 3.22,0.78 4.26,1.94 l -0.96,0.86 c -0.84,-0.88 -1.84,-1.46 -3.26,-1.46 -1.82,0 -3.42,1.26 -3.64,3.5 m 0,1.14 c 0.2,2.02 1.56,3.52 3.36,3.52 2.06,0 3.14,-1.64 3.3,-3.52 z m 11.84,-1.14 h 8.2 c 0.02,0.18 0.02,0.34 0.02,0.48 0,3.04 -1.76,5.48 -4.82,5.48 -2.86,0 -4.96,-2.4 -4.96,-5.4 0,-3.22 2.32,-5.4 5.16,-5.4 1.96,0 3.22,0.78 4.26,1.94 l -0.96,0.86 c -0.84,-0.88 -1.84,-1.46 -3.26,-1.46 -1.82,0 -3.42,1.26 -3.64,3.5 m 0,1.14 c 0.2,2.02 1.56,3.52 3.36,3.52 2.06,0 3.14,-1.64 3.3,-3.52 z m 12.46,-1.62 c 0,3.12 1.84,4.74 4.1,4.74 h 0.12 v 1.66 c -1.96,0.08 -3.46,-1.16 -4.22,-2.88 v 2.7 h -1.54 V -14 h 1.54 z m 8.36,10.18 h -1.76 v -1.7 h 1.76 z m -0.12,-3.96 h -1.54 V -14 h 1.54 z m 5.12,-4.42 c 0,1.94 1.32,3.24 3.1,3.24 1.82,0 2.86,-1.2 2.86,-3.12 V -14 h 1.54 v 6.42 c 0,2.46 -1.46,4.14 -3.96,4.14 -1.78,0 -2.86,-0.9 -3.54,-2.02 v 1.8 h -1.54 V -14 h 1.54 z m 20.62,-4.12 v 8.54 h -1.54 v -1.86 c -0.84,1.12 -2.1,2.08 -4.04,2.08 -2.46,0 -4.86,-1.86 -4.86,-4.9 0,-3.02 2.38,-4.86 4.86,-4.86 1.9,0 3.16,0.98 4.06,2.18 v -1.22 c 0,-2.42 -1.48,-3.68 -3.76,-3.68 -1.48,0 -2.8,0.46 -3.98,1.32 l -0.7,-1.2 c 1.38,-0.96 2.98,-1.44 4.7,-1.44 3.18,0 5.26,1.7 5.26,5.04 m -1.48,3.88 c 0,-2.12 -1.84,-3.52 -3.8,-3.52 -1.92,0 -3.58,1.42 -3.58,3.54 0,2.16 1.62,3.5 3.58,3.5 1.96,0 3.8,-1.38 3.8,-3.52 m 14.659,3.44 c 1.94,0 3.08,-0.96 3.08,-2.82 v -0.36 c -0.92,0.26 -1.86,0.44 -3.18,0.44 -2.62,0 -4.42,-1.16 -4.42,-3.36 0,-2.16 1.94,-3.24 3.86,-3.24 1.82,0 3.02,0.84 3.74,1.78 V -14 h 1.48 v 6.32 c 0,2.72 -1.58,4.16 -4.4,4.16 -1.5,0 -2.62,-0.34 -3.76,-0.86 l 0.46,-1.26 c 0.96,0.44 1.92,0.76 3.14,0.76 m 0.06,-3.88 c 1.26,0 2.28,-0.22 3.04,-0.44 v -1 c 0,-1.64 -1.56,-2.8 -3.46,-2.8 -1.4,0 -2.6,0.76 -2.6,2.08 0,1.32 1.08,2.16 3.02,2.16 m 9.32,0.68 c 0,1.94 1.32,3.24 3.1,3.24 1.82,0 2.86,-1.2 2.86,-3.12 V -14 h 1.54 v 6.42 c 0,2.46 -1.46,4.14 -3.96,4.14 -1.78,0 -2.86,-0.9 -3.54,-2.02 v 1.8 h -1.54 V -14 h 1.54 z M 148.578,-14 V 0.6 h -1.54 v -6.24 c -0.8,1.16 -2.04,2.2 -3.96,2.2 -2.48,0 -4.94,-2 -4.94,-5.4 0,-3.42 2.46,-5.38 4.94,-5.38 1.9,0 3.12,1.06 3.96,2.3 V -14 Z m -1.48,5.18 c 0,-2.42 -1.82,-4.02 -3.74,-4.02 -1.96,0 -3.64,1.56 -3.64,4.02 0,2.52 1.64,4 3.64,4 1.92,0 3.74,-1.6 3.74,-4"
             style="fill:#ffffff;fill-opacity:1;fill-rule:nonzero;stroke:none"
             id="path136" /></g><g
           style="fill:#ffffff"
           id="g138"
           transform="translate(203.8204,65.5234)"><path
             inkscape:connector-curvature="0"
             d="M 0,0 V 4.256 H -4.256 V 2.394 h 2.17 v -1.4 c -0.546,-0.392 -1.246,-0.588 -2.03,-0.588 -1.736,0 -2.968,1.316 -2.968,3.108 v 0.028 c 0,1.666 1.246,3.052 2.814,3.052 1.134,0 1.806,-0.364 2.562,-0.994 L -0.35,7.238 C -1.372,8.106 -2.436,8.582 -4.2,8.582 -7.168,8.582 -9.338,6.3 -9.338,3.514 V 3.486 c 0,-2.898 2.1,-5.04 5.152,-5.04 1.792,0 3.178,0.7 4.186,1.554 m 10.682,-1.386 -2.394,3.5 c 1.246,0.462 2.1,1.456 2.1,3.038 V 5.18 c 0,2.016 -1.386,3.234 -3.696,3.234 h -4.48 v -9.8 H 4.368 V 1.75 h 1.694 l 2.1,-3.136 z M 8.204,5.04 C 8.204,4.214 7.602,3.654 6.552,3.654 H 4.368 V 6.468 H 6.51 c 1.05,0 1.694,-0.476 1.694,-1.4 z m 13.818,-6.426 -4.2,9.87 h -1.988 l -4.2,-9.87 h 2.198 l 0.896,2.198 h 4.144 l 0.896,-2.198 z m -3.92,4.102 H 15.498 L 16.8,5.894 Z m 14.602,0.798 v 0.028 c 0,2.758 -2.128,4.872 -5.208,4.872 h -3.822 v -9.8 h 3.822 c 3.08,0 5.208,2.142 5.208,4.9 M 30.45,3.486 C 30.45,1.75 29.26,0.56 27.496,0.56 H 25.83 v 5.908 h 1.666 c 1.764,0 2.954,-1.218 2.954,-2.954 z M 43.148,2.884 v 5.53 H 40.992 V 2.8 c 0,-1.554 -0.798,-2.352 -2.114,-2.352 -1.316,0 -2.114,0.826 -2.114,2.422 v 5.544 h -2.156 v -5.6 c 0,-2.884 1.61,-4.354 4.242,-4.354 2.632,0 4.298,1.456 4.298,4.424 m 11.537,-4.27 -4.2,9.87 h -1.988 l -4.2,-9.87 h 2.198 l 0.896,2.198 h 4.144 l 0.896,-2.198 z m -3.92,4.102 h -2.604 l 1.302,3.178 z m 11.731,3.71 v 1.988 h -8.12 V 6.426 h 2.982 v -7.812 h 2.156 V 6.426 Z M 71.75,-1.386 V 0.532 H 66.43 V 2.59 h 4.62 v 1.918 h -4.62 v 1.988 h 5.25 v 1.918 h -7.392 v -9.8 z M 85.231,1.512 V 1.54 c 0,1.708 -1.12,2.422 -3.108,2.94 -1.694,0.434 -2.114,0.644 -2.114,1.288 v 0.028 c 0,0.476 0.434,0.854 1.26,0.854 0.826,0 1.68,-0.364 2.548,-0.966 l 1.12,1.624 c -0.994,0.798 -2.212,1.246 -3.64,1.246 -2.002,0 -3.43,-1.176 -3.43,-2.954 V 5.572 c 0,-1.946 1.274,-2.492 3.248,-2.996 1.638,-0.42 1.974,-0.7 1.974,-1.246 V 1.302 c 0,-0.574 -0.532,-0.924 -1.414,-0.924 -1.12,0 -2.044,0.462 -2.926,1.19 L 77.475,0.042 c 1.176,-1.05 2.674,-1.568 4.158,-1.568 2.114,0 3.598,1.092 3.598,3.038 M 95.857,0.196 94.485,1.582 c -0.77,-0.7 -1.456,-1.148 -2.576,-1.148 -1.68,0 -2.842,1.4 -2.842,3.08 v 0.028 c 0,1.68 1.19,3.052 2.842,3.052 0.98,0 1.75,-0.42 2.506,-1.106 l 1.372,1.582 c -0.91,0.896 -2.016,1.512 -3.864,1.512 -3.01,0 -5.11,-2.282 -5.11,-5.068 V 3.486 c 0,-2.814 2.142,-5.04 5.026,-5.04 1.89,0 3.01,0.672 4.018,1.75 m 10.15,-1.582 v 9.8 h -2.156 V 4.536 h -3.976 v 3.878 h -2.156 v -9.8 h 2.156 v 3.934 h 3.976 v -3.934 z m 12.474,4.9 v 0.028 c 0,2.786 -2.17,5.04 -5.194,5.04 -3.024,0 -5.222,-2.282 -5.222,-5.068 V 3.486 c 0,-2.786 2.17,-5.04 5.194,-5.04 3.024,0 5.222,2.282 5.222,5.068 m -2.254,-0.028 c 0,-1.68 -1.204,-3.052 -2.94,-3.052 -1.736,0 -2.968,1.4 -2.968,3.08 v 0.028 c 0,1.68 1.204,3.052 2.94,3.052 1.736,0 2.968,-1.4 2.968,-3.08 z m 14.294,0.028 v 0.028 c 0,2.786 -2.17,5.04 -5.194,5.04 -3.024,0 -5.222,-2.282 -5.222,-5.068 V 3.486 c 0,-2.786 2.17,-5.04 5.194,-5.04 3.024,0 5.222,2.282 5.222,5.068 m -2.254,-0.028 c 0,-1.68 -1.204,-3.052 -2.94,-3.052 -1.736,0 -2.968,1.4 -2.968,3.08 v 0.028 c 0,1.68 1.204,3.052 2.94,3.052 1.736,0 2.968,-1.4 2.968,-3.08 z m 11.354,-4.872 v 1.96 h -4.886 v 7.84 h -2.156 v -9.8 z"
             style="fill:#ffffff;fill-opacity:1;fill-rule:nonzero;stroke:none"
             id="path140" /></g></g></g></g></svg>
