<?xml version="1.0" standalone="no"?>
<!DOCTYPE svg PUBLIC "-//W3C//DTD SVG 20010904//EN"
 "http://www.w3.org/TR/2001/REC-SVG-20010904/DTD/svg10.dtd">
<svg version="1.0" xmlns="http://www.w3.org/2000/svg"
 width="680.000000pt" height="680.000000pt" viewBox="0 0 680.000000 680.000000"
 preserveAspectRatio="xMidYMid meet">
<metadata>
Created by potrace 1.11, written by Peter Selinger 2001-2013
</metadata>
<g transform="translate(0.000000,680.000000) scale(0.100000,-0.100000)"
fill="#000000" stroke="none">
<path d="M1460 5916 l0 -163 81 -7 c56 -5 82 -12 86 -22 4 -11 9 -12 19 -3 11
9 14 8 14 -2 0 -11 2 -11 10 1 8 13 11 13 22 1 11 -11 11 -13 -1 -6 -9 5 -12
4 -7 -3 5 -9 13 -9 27 -2 14 8 19 7 19 -2 0 -9 3 -9 10 2 9 13 10 13 10 0 0
-13 1 -13 10 0 9 13 10 13 10 0 0 -13 1 -13 10 0 5 8 10 11 10 5 0 -8 57 -10
135 -3 6 0 19 -3 29 -8 15 -6 17 -4 11 7 -7 12 -6 12 7 1 12 -10 17 -10 20 -1
3 9 9 9 26 0 19 -10 22 -9 22 6 0 14 2 15 9 5 5 -8 29 -15 55 -17 25 -1 44 1
41 5 -2 3 2 7 10 7 8 0 15 -5 15 -11 0 -6 5 -4 10 4 5 8 10 11 10 5 0 -11 72
-11 88 -1 6 3 13 0 15 -6 3 -7 6 -4 7 7 l1 20 9 -20 c5 -11 9 -14 9 -7 1 6 6
12 12 12 5 0 8 -4 5 -8 -2 -4 4 -8 15 -8 10 0 19 3 19 7 0 8 38 4 64 -7 15 -6
17 -4 11 7 -7 12 -6 12 7 1 12 -10 17 -10 20 -1 3 9 9 9 26 0 19 -10 22 -9 22
6 0 14 2 15 9 5 10 -16 61 -23 61 -9 0 7 4 7 12 -1 7 -7 17 -8 30 -1 13 7 18
6 18 -3 0 -9 3 -9 10 2 9 13 10 13 10 0 0 -13 1 -13 10 0 7 11 10 11 10 2 0
-7 5 -10 10 -7 7 5 10 -539 7 -1717 -3 -1890 1 -1775 -62 -1997 -81 -289 -253
-541 -472 -689 -205 -139 -491 -205 -728 -168 -289 44 -568 180 -831 403 -28
23 -54 43 -58 43 -3 0 -6 -12 -6 -26 l0 -26 -33 28 c-27 23 -32 25 -35 10 -3
-16 -6 -16 -27 -2 -17 11 -24 12 -27 3 -2 -7 -4 -89 -4 -183 l1 -171 60 -50
c131 -109 307 -212 470 -276 98 -38 126 -49 138 -52 4 -2 9 -4 12 -5 3 -1 8
-3 13 -4 4 -1 13 -5 21 -10 10 -6 12 -5 7 2 -5 8 -2 10 8 6 9 -3 16 -11 16
-18 0 -6 5 -4 10 4 8 12 10 12 10 -5 0 -17 2 -17 10 -5 9 13 10 13 10 0 0 -12
2 -12 9 -2 6 11 10 10 15 -4 6 -14 9 -16 15 -5 6 9 11 10 15 3 4 -6 14 -8 23
-5 11 4 14 3 9 -5 -5 -8 1 -12 16 -12 19 0 20 2 8 11 -12 9 -12 10 3 5 10 -3
21 -6 23 -6 3 0 3 -4 0 -9 -3 -4 6 -6 21 -3 20 4 24 2 18 -9 -6 -11 -5 -12 6
-1 7 6 17 12 22 12 4 0 5 -6 1 -12 -6 -10 -5 -10 7 -1 12 10 18 10 29 0 10
-10 11 -9 5 2 -5 8 3 6 21 -5 15 -11 25 -14 21 -7 -4 6 -3 14 3 18 5 3 10 1
10 -5 0 -7 7 -7 23 1 19 11 20 10 9 -3 -11 -13 -8 -15 20 -12 17 2 33 6 35 8
3 2 17 0 33 -4 20 -6 30 -5 33 3 3 9 9 9 23 1 15 -9 25 -8 44 5 24 15 24 15
11 -2 -12 -16 -12 -17 5 -11 10 4 25 12 33 18 11 8 13 8 7 -1 -4 -8 -1 -13 8
-13 9 0 16 6 16 13 0 8 4 7 10 -3 5 -8 10 -10 10 -3 0 12 17 12 37 0 6 -4 15
-2 19 4 4 8 3 9 -4 5 -7 -4 -12 -2 -12 4 0 8 7 9 18 5 25 -11 54 -8 63 7 7 10
9 10 9 -1 0 -11 3 -11 15 -1 8 7 22 10 30 6 8 -3 15 0 15 6 0 7 4 7 13 0 8 -7
17 -7 29 2 10 7 16 15 13 18 -3 2 9 3 25 0 17 -2 30 0 30 6 0 5 9 12 21 15 14
4 18 2 12 -7 -4 -6 0 -3 9 7 10 11 18 14 18 8 0 -6 5 -11 11 -11 6 0 8 7 5 17
-4 10 -4 14 0 11 4 -4 16 -2 28 4 18 9 19 9 11 -3 -5 -8 -2 -6 8 4 12 14 17
15 18 6 0 -8 4 -5 9 6 5 11 9 14 9 7 1 -7 6 -10 11 -7 6 4 8 11 5 16 -3 5 2 6
11 2 11 -4 15 -3 10 5 -3 6 -1 14 5 18 7 4 9 3 5 -4 -3 -6 -2 -13 4 -17 5 -3
10 1 10 10 0 9 5 13 10 10 6 -3 10 -1 10 5 0 7 6 10 14 7 8 -3 17 1 20 9 3 8
16 14 28 14 19 0 20 2 8 10 -12 8 -12 10 5 10 24 1 58 24 48 33 -6 6 21 11 40
8 5 -1 6 3 3 8 -8 13 21 34 35 25 9 -5 10 -2 6 9 -5 13 -1 17 14 17 11 0 17 5
14 10 -5 9 7 14 27 12 3 -1 12 6 20 16 12 16 11 16 -7 2 -19 -15 -19 -15 0 11
13 18 22 23 27 15 5 -7 8 -6 8 4 0 8 8 24 17 35 13 16 15 17 10 3 -10 -28 1
-21 18 12 9 17 20 28 25 25 6 -4 7 1 3 11 -3 10 -2 15 3 12 5 -3 15 0 22 8 7
8 9 14 5 14 -4 0 0 5 10 11 9 5 17 15 17 21 0 6 13 23 28 37 15 14 21 22 12
16 -9 -5 -4 2 11 17 15 14 25 28 23 31 -2 2 2 10 11 17 8 7 15 19 15 26 0 8 5
14 10 14 6 0 10 7 10 16 0 8 5 12 10 9 6 -3 10 2 10 12 1 18 23 55 31 50 2 -1
3 0 2 2 -2 2 3 11 10 19 10 13 9 14 -1 8 -11 -7 -11 -4 -1 12 7 12 17 18 23
15 5 -4 7 1 3 11 -4 11 1 29 13 46 11 15 17 30 13 34 -3 3 -1 6 6 6 7 0 10 4
6 9 -3 5 -1 12 5 16 6 4 8 11 5 16 -4 5 -2 9 4 9 6 0 7 7 4 17 -5 12 -3 14 7
8 8 -5 11 -4 7 2 -9 14 14 83 26 76 6 -3 7 -1 3 5 -4 7 2 45 13 84 25 93 49
236 60 358 10 107 15 3749 5 3774 -6 15 -86 16 -870 16 l-864 0 0 -164z"/>
<path d="M4840 5925 c-28 -41 -32 -65 -10 -65 11 0 110 90 110 101 0 5 -16 9
-35 9 -29 0 -38 -6 -65 -45z"/>
<path d="M3277 5812 c-15 -16 -17 -54 -17 -325 0 -366 -13 -337 147 -337 154
0 143 -26 143 340 0 367 12 340 -148 340 -93 0 -111 -3 -125 -18z m207 -48 c3
-9 6 -137 6 -285 l0 -269 -85 0 -85 0 0 278 c0 153 3 282 7 285 3 4 39 7 79 7
56 0 73 -3 78 -16z"/>
<path d="M3630 5510 c0 -387 -10 -360 134 -360 52 0 106 4 120 10 l26 10 0
330 0 330 -30 0 -30 0 0 -310 0 -310 -79 0 -79 0 0 258 c-1 408 3 362 -32 362
l-30 0 0 -320z"/>
<path d="M4002 5493 l3 -338 28 -3 c20 -3 27 1 28 15 0 10 1 150 1 311 l0 292
73 0 c49 0 74 -4 77 -12 4 -11 3 -199 -1 -220 0 -5 -23 -8 -50 -8 -28 0 -52
-4 -55 -8 -3 -5 23 -89 58 -188 62 -179 62 -179 94 -182 18 -2 32 -1 32 1 0 3
-25 73 -55 157 -30 84 -53 155 -50 160 2 4 19 7 37 8 52 1 58 19 58 174 0 182
4 178 -160 178 l-120 0 2 -337z"/>
<path d="M4382 5493 l3 -338 27 -3 28 -3 2 241 3 242 86 -238 c73 -202 90
-239 108 -242 l21 -3 0 340 0 341 -30 0 -30 0 -2 -231 -3 -231 -39 108 c-131
364 -126 354 -152 354 l-24 0 2 -337z"/>
<path d="M4752 5493 l3 -338 108 -3 107 -3 0 31 0 30 -80 0 -79 0 2 128 2 127
73 3 c69 3 72 4 72 27 0 14 -3 26 -7 26 -5 1 -35 3 -68 4 -33 2 -63 3 -67 4
-4 1 -7 55 -7 121 l1 120 79 0 79 0 0 30 0 30 -110 0 -110 0 2 -337z"/>
<path d="M5062 5493 l3 -338 108 -3 107 -3 0 31 0 30 -78 0 -79 0 0 130 1 130
73 0 c71 0 73 1 73 25 0 14 -4 26 -10 26 -5 1 -32 3 -60 4 -27 1 -56 3 -63 4
-11 1 -14 29 -14 121 l0 120 79 0 78 0 0 30 0 30 -110 0 -110 0 2 -337z"/>
<path d="M5976 5642 c-3 -3 -6 -45 -6 -94 l0 -88 -44 0 c-36 0 -48 -5 -65 -26
-18 -23 -21 -41 -21 -135 0 -137 8 -148 108 -145 l67 1 0 244 c0 221 -2 244
-17 247 -9 1 -19 -1 -22 -4z m-6 -337 l0 -115 -35 0 c-45 0 -55 20 -55 115 0
95 10 115 55 115 l35 0 0 -115z"/>
<path d="M6082 5448 c-8 -8 -12 -54 -12 -139 0 -153 3 -159 88 -159 79 0 89 9
84 77 -3 32 -36 23 -40 -10 -3 -25 -7 -27 -46 -27 l-43 0 1 55 1 55 61 0 c51
0 62 3 66 18 7 23 1 118 -7 132 -9 14 -138 13 -153 -2z m118 -73 l0 -45 -45 0
-45 0 0 45 0 45 45 0 45 0 0 -45z"/>
<path d="M6312 5448 c-7 -7 -12 -29 -12 -50 0 -41 10 -55 82 -113 36 -29 42
-41 39 -78 -1 -15 -8 -18 -38 -15 -35 3 -38 6 -41 36 -2 24 -8 32 -23 32 -16
0 -19 -7 -19 -45 0 -53 16 -65 85 -65 69 0 85 12 85 64 0 49 -10 63 -82 121
-33 26 -48 45 -48 61 0 21 5 24 40 24 28 0 40 -4 41 -15 1 -8 2 -21 3 -27 0
-7 11 -14 24 -16 20 -3 22 1 22 35 0 53 -14 63 -85 63 -34 0 -66 -5 -73 -12z"/>
<path d="M3265 4851 c-3 -2 -5 -154 -5 -338 l0 -333 111 0 110 0 -3 28 c-3 26
-5 27 -65 28 -35 1 -69 2 -76 3 -11 1 -14 29 -14 126 1 69 3 126 6 127 3 0 35
2 71 3 63 1 65 3 68 28 l3 27 -74 0 -75 0 2 123 1 122 78 3 c76 3 77 3 77 30
l0 27 -105 0 c-58 1 -108 -1 -110 -4z"/>
<path d="M3603 4853 c-10 -4 -13 -81 -13 -339 l0 -334 30 0 30 0 0 237 c0 130
2 234 5 231 3 -3 43 -108 89 -234 71 -194 87 -229 105 -232 l21 -3 0 339 0
339 -27 -2 -28 -1 -5 -230 -5 -229 -80 223 c-44 123 -87 227 -95 231 -8 5 -21
6 -27 4z"/>
<path d="M4035 4852 c-43 -8 -45 -21 -45 -337 0 -280 1 -303 18 -318 15 -14
40 -17 123 -17 68 0 109 4 117 12 8 8 12 47 12 110 l0 98 -30 0 -30 0 0 -79
c0 -54 -4 -80 -12 -83 -12 -3 -73 -3 -120 1 -15 1 -16 26 -15 279 l2 277 73 3
72 3 0 -76 0 -75 30 0 30 0 0 89 c0 68 -4 92 -15 101 -15 13 -164 21 -210 12z"/>
<path d="M4430 4852 c-49 -7 -50 -15 -50 -337 0 -280 1 -303 18 -318 26 -24
233 -25 256 -1 14 13 16 56 16 318 0 238 -3 306 -13 321 -12 15 -29 18 -108
19 -52 1 -105 0 -119 -2z m170 -331 l0 -281 -80 0 -80 0 0 278 0 278 80 3 80
2 0 -280z"/>
<path d="M4793 4853 c-10 -4 -13 -81 -13 -339 l0 -334 30 0 30 0 0 237 c0 130
2 234 5 232 2 -3 42 -108 88 -235 72 -195 87 -229 106 -232 l21 -3 -2 338 -3
338 -25 0 -25 0 -5 -230 -5 -230 -80 223 c-44 123 -87 227 -95 232 -8 4 -21 5
-27 3z"/>
<path d="M5149 4848 c-7 -41 -4 -43 49 -46 l52 -3 0 -310 0 -309 30 0 30 0 0
310 0 310 49 0 c54 0 63 6 55 36 -5 18 -15 19 -135 20 -71 0 -130 -3 -130 -8z"/>
<path d="M5505 4852 c-3 -3 -5 -155 -5 -339 l0 -333 30 0 c17 0 31 6 31 13 1
6 2 145 3 307 l1 295 73 3 c69 3 72 2 73 -20 5 -120 2 -211 -6 -216 -5 -4 -30
-7 -54 -7 -24 0 -46 -5 -47 -10 -1 -6 25 -89 59 -185 l62 -175 34 -3 c28 -3
33 -1 27 13 -19 50 -106 296 -106 300 0 3 14 5 30 5 17 0 39 9 50 20 18 18 20
33 20 158 0 102 -4 143 -14 157 -12 17 -29 19 -135 20 -66 1 -123 0 -126 -3z"/>
<path d="M5894 4851 c-2 -2 -4 -154 -4 -338 l0 -333 108 0 c60 0 111 2 114 5
3 3 3 16 1 28 -4 21 -10 23 -64 22 -99 -1 -96 -5 -94 132 1 65 3 121 4 124 0
3 27 5 59 4 73 -2 82 2 82 31 0 23 -3 24 -73 24 l-73 0 0 123 1 122 78 3 c77
3 77 3 77 31 l0 27 -106 0 c-58 0 -107 -2 -110 -5z"/>
<path d="M6265 4852 c-40 -9 -45 -21 -45 -115 0 -102 -6 -91 128 -250 l75 -89
1 -75 c2 -82 -3 -90 -59 -87 -16 1 -42 2 -57 3 l-28 1 0 80 0 80 -30 0 -30 0
0 -94 c0 -125 1 -126 135 -126 96 0 105 2 119 22 19 26 22 160 6 203 -6 15
-53 78 -105 142 l-95 115 0 69 0 69 70 0 c79 0 72 10 73 -102 0 -48 0 -48 35
-48 l34 0 -4 90 c-1 50 -8 94 -15 101 -11 11 -168 20 -208 11z"/>
<path d="M3260 3565 l0 -335 30 0 30 0 2 238 3 237 86 -235 c73 -202 88 -235
107 -238 l22 -3 0 335 0 336 -30 0 -30 0 -1 -232 0 -233 -60 165 c-112 308
-108 300 -135 300 l-24 0 0 -335z"/>
<path d="M3606 3884 c-10 -26 2 -34 55 -34 l49 0 0 -310 0 -310 30 0 30 0 0
310 0 310 56 0 c52 0 55 1 52 23 -3 21 -7 22 -134 25 -114 2 -132 0 -138 -14z"/>
<path d="M3900 3564 l0 -335 33 3 32 3 0 305 0 305 73 3 72 3 1 -33 c4 -118 4
-195 1 -205 -3 -9 -24 -13 -59 -13 -40 0 -54 -3 -51 -12 3 -7 31 -91 64 -185
l59 -173 32 0 32 0 -50 143 c-70 195 -67 177 -27 177 61 0 68 17 68 178 0 114
-3 143 -16 156 -12 13 -40 16 -140 16 l-124 0 0 -336z"/>
<path d="M4270 3565 l0 -335 108 0 c60 0 111 3 114 6 3 3 4 14 1 24 -4 16 -16
20 -82 22 l-76 3 0 128 0 127 73 0 73 0 -3 28 c-3 26 -5 27 -73 32 l-70 5 0
120 0 120 78 3 c74 3 77 4 77 27 l0 25 -110 0 -110 0 0 -335z"/>
<path d="M4580 3564 l0 -335 32 3 33 3 1 115 c1 63 2 122 3 131 1 13 14 15 79
14 125 -4 122 -9 122 203 0 125 -4 182 -12 190 -8 8 -53 12 -135 12 l-123 0 0
-336z m210 136 l0 -150 -75 0 -75 0 0 150 0 150 75 0 75 0 0 -150z"/>
<path d="M4950 3564 l0 -335 32 3 32 3 0 305 1 305 73 3 c69 3 72 2 73 -20 4
-72 4 -205 1 -215 -3 -9 -24 -13 -59 -13 -40 0 -54 -3 -51 -12 3 -7 31 -91 64
-185 l59 -173 34 0 c28 0 32 3 26 18 -17 44 -105 290 -105 296 0 3 15 6 33 6
60 0 67 18 67 178 0 114 -3 143 -16 156 -12 13 -40 16 -140 16 l-124 0 0 -336z"/>
<path d="M5340 3565 l0 -335 30 0 30 0 0 335 0 335 -30 0 -30 0 0 -335z"/>
<path d="M5512 3888 c-8 -8 -12 -46 -12 -105 l0 -92 47 -58 c26 -32 71 -86
100 -121 29 -35 53 -69 54 -75 1 -17 1 -129 0 -144 -1 -9 -22 -13 -71 -13
l-70 0 0 85 0 85 -30 0 -30 0 0 -98 c0 -63 4 -102 12 -110 14 -14 215 -16 238
-2 16 10 27 136 16 195 -5 23 -38 72 -106 153 l-100 120 0 71 0 71 70 0 c49 0
70 -4 71 -12 0 -7 1 -40 2 -73 1 -51 5 -61 22 -66 39 -11 45 -1 45 80 0 116
-6 121 -139 121 -70 0 -111 -4 -119 -12z"/>
<path d="M5870 3565 l0 -335 108 0 c60 0 111 3 114 6 3 3 4 14 1 24 -4 16 -16
20 -82 22 l-76 3 0 128 0 127 73 0 73 0 -3 28 c-3 26 -5 27 -73 32 l-70 5 0
120 0 120 78 3 c74 3 77 4 77 27 l0 25 -110 0 -110 0 0 -335z"/>
<path d="M6192 3888 c-8 -8 -12 -46 -12 -105 l0 -92 47 -58 c26 -32 71 -86
100 -121 29 -35 54 -73 54 -85 4 -73 4 -124 1 -134 -3 -9 -27 -13 -73 -13
l-69 0 0 85 0 85 -30 0 -30 0 0 -98 c0 -63 4 -102 12 -110 19 -19 222 -16 242
4 19 18 23 165 6 209 -5 14 -53 77 -105 139 l-95 114 0 71 0 71 70 0 c49 0 70
-4 71 -12 1 -7 2 -39 3 -72 1 -50 4 -60 22 -66 39 -15 46 1 43 94 -3 63 -8 89
-19 96 -22 14 -223 13 -238 -2z"/>
<path d="M3276 2954 c-14 -13 -16 -56 -16 -318 0 -240 3 -306 14 -321 12 -16
28 -19 131 -19 104 -1 118 1 131 19 11 15 14 77 14 321 0 262 -2 305 -16 318
-12 13 -39 16 -129 16 -90 0 -117 -3 -129 -16z m209 -56 c3 -13 4 -140 3 -283
l-3 -260 -60 -3 c-32 -2 -69 -1 -82 3 l-23 5 0 274 c0 150 3 276 7 279 3 4 39
7 79 7 68 0 74 -2 79 -22z"/>
<path d="M3676 2954 c-14 -13 -16 -56 -16 -318 0 -240 3 -306 14 -321 11 -16
28 -19 118 -19 139 -1 138 -1 138 125 l0 99 -30 0 -30 0 0 -85 0 -85 -69 0
c-46 0 -70 4 -73 13 -4 10 -3 494 1 537 1 13 15 16 71 16 l70 -1 0 -71 c0 -68
1 -72 25 -76 13 -3 27 -3 30 0 11 11 5 178 -7 190 -19 19 -222 16 -242 -4z"/>
<path d="M4014 2945 c0 -26 3 -27 74 -28 l32 -1 0 -308 c0 -267 2 -308 15
-309 8 -1 21 -2 28 -3 9 -1 13 69 17 309 l5 310 47 0 c54 0 62 6 53 34 -6 20
-14 21 -139 21 l-132 0 0 -25z"/>
<path d="M4386 2954 c-14 -13 -16 -56 -16 -318 0 -243 3 -306 14 -321 12 -17
27 -19 131 -19 103 0 119 2 131 19 11 15 14 79 14 321 0 262 -2 305 -16 318
-12 13 -39 16 -129 16 -90 0 -117 -3 -129 -16z m209 -56 c3 -13 4 -140 3 -283
l-3 -260 -60 -3 c-32 -2 -69 -1 -82 3 l-23 5 0 274 c0 150 3 276 7 279 3 4 39
7 79 7 68 0 74 -2 79 -22z"/>
<path d="M4770 2636 l0 -334 25 -5 c17 -3 28 1 33 12 5 9 7 144 7 301 -1 157
2 290 6 296 5 6 36 10 71 9 57 0 62 -2 68 -25 4 -21 6 -161 1 -207 -1 -9 -18
-13 -49 -13 -27 0 -51 -3 -55 -6 -3 -3 22 -86 56 -184 61 -178 71 -195 109
-181 14 5 9 25 -38 156 -30 83 -54 153 -54 158 0 4 15 7 34 7 61 0 66 14 66
174 0 183 6 176 -158 176 l-122 0 0 -334z"/>
<path d="M5196 2639 c-32 -181 -57 -332 -55 -334 5 -4 30 -8 45 -6 7 0 15 22
18 49 15 104 9 97 81 98 72 0 66 7 81 -98 5 -39 10 -47 31 -51 15 -3 27 1 30
9 3 8 -20 157 -51 332 -31 174 -56 320 -56 325 0 4 -15 7 -33 7 l-32 0 -59
-331z m119 26 c14 -82 25 -153 25 -157 0 -5 -25 -8 -56 -8 -56 0 -56 0 -51 28
3 15 16 92 29 172 12 79 24 138 25 130 2 -8 14 -82 28 -165z"/>
<path d="M5550 2635 c0 -328 0 -335 20 -335 11 0 23 -1 28 -2 4 -2 9 105 12
236 l5 239 85 -234 c74 -203 88 -234 108 -237 l22 -3 0 335 0 336 -30 0 -30 0
-2 -230 -3 -230 -64 178 c-107 298 -99 282 -127 282 l-24 0 0 -335z"/>
<path d="M5894 2945 c1 -25 3 -26 69 -29 l32 -1 3 -306 2 -307 30 -4 30 -4 2
310 3 311 47 0 c54 0 62 6 53 34 -6 20 -14 21 -140 21 l-133 0 2 -25z"/>
<path d="M6256 2954 c-12 -12 -16 -37 -16 -104 l0 -89 76 -93 c138 -170 127
-150 128 -236 l1 -77 -72 -3 -73 -3 0 86 0 85 -30 0 -30 0 0 -99 c0 -77 3
-101 16 -112 10 -8 50 -13 120 -13 93 -1 107 1 120 18 20 27 19 181 -1 219 -8
16 -55 78 -105 137 l-91 109 3 68 3 68 68 1 67 1 1 -31 c1 -17 2 -50 2 -73 0
-38 3 -42 29 -45 15 -3 30 -2 33 0 3 3 5 40 5 81 0 115 -6 121 -135 121 -81 0
-107 -3 -119 -16z"/>
</g>
</svg>
