<?xml version="1.0" standalone="no"?>
<!DOCTYPE svg PUBLIC "-//W3C//DTD SVG 20010904//EN"
 "http://www.w3.org/TR/2001/REC-SVG-20010904/DTD/svg10.dtd">
<svg version="1.0" xmlns="http://www.w3.org/2000/svg"
 width="420.000000pt" height="420.000000pt" viewBox="0 0 420.000000 420.000000"
 preserveAspectRatio="xMidYMid meet">
<metadata>
Created by potrace 1.11, written by Peter Selinger 2001-2013
</metadata>
<g transform="translate(0.000000,420.000000) scale(0.100000,-0.100000)"
fill="#000000" stroke="none">
<path d="M2295 4129 c-262 -27 -396 -61 -612 -156 -314 -138 -618 -396 -816
-694 -82 -124 -171 -290 -217 -407 -108 -270 -156 -661 -114 -940 20 -134 86
-398 129 -519 119 -328 326 -601 626 -828 186 -140 520 -308 755 -380 211 -65
292 -77 550 -82 379 -8 510 19 807 168 202 102 273 162 253 215 -10 27 -56 11
-251 -86 -287 -143 -429 -180 -684 -180 -266 0 -545 44 -741 117 -110 41 -239
104 -362 176 l-88 51 0 1563 0 1562 93 57 c165 103 414 197 612 231 140 23
438 23 558 0 181 -36 306 -96 396 -192 80 -84 96 -128 96 -260 0 -102 -2 -113
-27 -157 -51 -86 -124 -107 -250 -72 -65 19 -113 57 -124 98 -9 37 -4 39 41
16 41 -21 67 -19 98 8 49 43 -14 142 -91 142 -108 0 -192 -145 -145 -251 37
-83 125 -139 252 -160 221 -37 355 111 356 391 0 220 -64 342 -225 433 -196
109 -572 168 -875 136z m-905 -581 c0 -29 4 -309 10 -623 19 -1161 33 -2242
29 -2254 -11 -33 -308 250 -423 404 -141 188 -239 430 -302 740 -106 529 70
1176 423 1554 76 82 240 230 256 231 4 0 7 -24 7 -52z"/>
</g>
</svg>
