<?xml version="1.0" standalone="no"?>
<!DOCTYPE svg PUBLIC "-//W3C//DTD SVG 20010904//EN"
 "http://www.w3.org/TR/2001/REC-SVG-20010904/DTD/svg10.dtd">
<svg version="1.0" xmlns="http://www.w3.org/2000/svg"
 width="348.000000pt" height="348.000000pt" viewBox="0 0 348.000000 348.000000"
 preserveAspectRatio="xMidYMid meet">
<metadata>
Created by potrace 1.16, written by Peter Selinger 2001-2019
</metadata>
<g transform="translate(0.000000,348.000000) scale(0.100000,-0.100000)"
fill="#000000" stroke="none">
<path d="M1397 3209 c-100 -23 -207 -111 -249 -204 -17 -38 -24 -76 -28 -155
l-5 -105 -470 -5 c-509 -5 -498 -4 -552 -62 -53 -57 -53 -55 -53 -638 0 -466
2 -546 16 -578 20 -48 56 -86 102 -106 30 -13 1290 -246 1330 -246 9 0 12 30
12 112 0 100 2 115 25 154 38 65 87 84 215 84 128 0 177 -19 215 -84 23 -39
25 -54 25 -154 0 -83 3 -112 13 -112 6 0 308 54 671 119 626 114 660 121 695
148 20 16 46 49 59 73 l22 44 0 543 c0 586 0 584 -53 641 -54 58 -43 57 -552
62 l-470 5 -5 105 c-4 78 -11 117 -28 153 -42 94 -120 163 -219 196 -58 20
-83 21 -370 20 -169 -1 -325 -5 -346 -10z m689 -177 c82 -42 114 -103 114
-217 l0 -75 -460 0 -460 0 0 68 c0 115 32 181 104 219 50 27 95 30 387 28 254
-2 278 -4 315 -23z"/>
<path d="M1607 1332 l-27 -28 0 -173 c0 -104 4 -180 11 -193 16 -30 71 -48
149 -48 78 0 133 18 149 48 7 13 11 89 11 193 l0 173 -27 28 c-26 27 -30 28
-133 28 -103 0 -107 -1 -133 -28z"/>
<path d="M152 833 c3 -377 5 -432 20 -458 26 -47 79 -92 123 -105 29 -8 424
-10 1471 -8 l1431 3 40 28 c22 15 50 46 64 70 l24 42 3 428 c2 235 0 427 -4
427 -3 0 -304 -58 -668 -130 -365 -71 -666 -130 -669 -130 -4 0 -7 -12 -7 -27
0 -48 -39 -111 -84 -138 -39 -23 -53 -25 -156 -25 -103 0 -117 2 -157 25 -46
27 -83 85 -83 129 0 31 -3 33 -92 51 -287 57 -1246 245 -1252 245 -4 0 -6
-192 -4 -427z"/>
</g>
</svg>
