<?xml version="1.0" ?><svg id="object" viewBox="0 0 32 32" xmlns="http://www.w3.org/2000/svg"><defs><style>.cls-1{fill:#ffc661;}.cls-2{fill:#e49f4e;}</style></defs><title/><path class="cls-1" d="M30.74,5.33A1,1,0,0,0,30,5H26.71L27,2.1a1,1,0,0,0-.26-.77A1,1,0,0,0,26,1H6a1,1,0,0,0-.74.33A1,1,0,0,0,5,2.1L5.29,5H2a1,1,0,0,0-.74.33A1,1,0,0,0,1,6.1l.83,8.2a3,3,0,0,0,3,2.7H6.94A9.8,9.8,0,0,0,13,22.53V29H11a1,1,0,0,0,0,2H21a1,1,0,0,0,0-2H19V22.53A9.8,9.8,0,0,0,25.06,17h2.13a3,3,0,0,0,3-2.7L31,6.1A1,1,0,0,0,30.74,5.33ZM4.81,15a1,1,0,0,1-1-.9L3.11,7H5.49l.72,7.14a8.1,8.1,0,0,0,.13.86Zm23.37-.9a1,1,0,0,1-1,.9H25.66a8.1,8.1,0,0,0,.13-.86L26.51,7h2.38Z"/><path class="cls-2" d="M29.28,16.15a3,3,0,0,0,.89-1.85l.41-4L31,6.1a1.24,1.24,0,0,0,0-.33,1.08,1.08,0,0,0-.22-.44A1,1,0,0,0,30,5H26.71L27,2.1a1.24,1.24,0,0,0,0-.33,1.08,1.08,0,0,0-.22-.44A1,1,0,0,0,26,1H16V31h5a1,1,0,0,0,0-2H19V22.54h0A9.8,9.8,0,0,0,25.06,17h2.13l.2,0A3,3,0,0,0,29.28,16.15ZM25.66,15h0a8.1,8.1,0,0,0,.13-.86L25.91,13l.6-6h2.38l-.71,7.1a1,1,0,0,1-.61.82h0a.94.94,0,0,1-.37.07H25.66Z"/></svg>