<?xml version="1.0" encoding="UTF-8" standalone="no"?>
<svg
   xmlns:dc="http://purl.org/dc/elements/1.1/"
   xmlns:cc="http://creativecommons.org/ns#"
   xmlns:rdf="http://www.w3.org/1999/02/22-rdf-syntax-ns#"
   xmlns:svg="http://www.w3.org/2000/svg"
   xmlns="http://www.w3.org/2000/svg"
   xmlns:sodipodi="http://sodipodi.sourceforge.net/DTD/sodipodi-0.dtd"
   xmlns:inkscape="http://www.inkscape.org/namespaces/inkscape"
   inkscape:version="1.0beta2 (2b71d25, 2019-12-03)"
   sodipodi:docname="company.svg"
   id="svg20"
   preserveAspectRatio="xMidYMid meet"
   viewBox="0 0 348.000000 348.000000"
   height="348.000000pt"
   width="348.000000pt"
   version="1.0">
  <defs
     id="defs24" />
  <sodipodi:namedview
     inkscape:current-layer="svg20"
     inkscape:window-maximized="0"
     inkscape:window-y="23"
     inkscape:window-x="0"
     inkscape:cy="212.63747"
     inkscape:cx="258.29616"
     inkscape:zoom="1.1788793"
     inkscape:pagecheckerboard="true"
     showgrid="false"
     id="namedview22"
     inkscape:window-height="651"
     inkscape:window-width="1168"
     inkscape:pageshadow="2"
     inkscape:pageopacity="0"
     guidetolerance="10"
     gridtolerance="10"
     objecttolerance="10"
     borderopacity="1"
     inkscape:document-rotation="0"
     bordercolor="#666666"
     pagecolor="#ffffff" />
  <metadata
     id="metadata10">
Created by potrace 1.16, written by Peter Selinger 2001-2019
<rdf:RDF>
  <cc:Work
     rdf:about="">
    <dc:format>image/svg+xml</dc:format>
    <dc:type
       rdf:resource="http://purl.org/dc/dcmitype/StillImage" />
    <dc:title></dc:title>
  </cc:Work>
</rdf:RDF>
</metadata>
  <g
     id="g32">
    <path
       style="fill:#ffffff;stroke:none;stroke-width:0.1"
       inkscape:connector-curvature="0"
       id="path12"
       d="m 139.7,27.1 c -10,2.3 -20.7,11.1 -24.9,20.4 -1.7,3.8 -2.4,7.6 -2.8,15.5 l -0.5,10.5 -47,0.5 C 13.6,74.5 14.7,74.4 9.3,80.2 4,85.9 4,85.7 4,144 c 0,46.6 0.2,54.6 1.6,57.8 2,4.8 5.6,8.6 10.2,10.6 3,1.3 129,24.6 133,24.6 0.9,0 1.2,-3 1.2,-11.2 0,-10 0.2,-11.5 2.5,-15.4 3.8,-6.5 8.7,-8.4 21.5,-8.4 12.8,0 17.7,1.9 21.5,8.4 2.3,3.9 2.5,5.4 2.5,15.4 0,8.3 0.3,11.2 1.3,11.2 0.6,0 30.8,-5.4 67.1,-11.9 62.6,-11.4 66,-12.1 69.5,-14.8 2,-1.6 4.6,-4.9 5.9,-7.3 l 2.2,-4.4 v -54.3 c 0,-58.6 0,-58.4 -5.3,-64.1 -5.4,-5.8 -4.3,-5.7 -55.2,-6.2 L 236.5,73.5 236,63 c -0.4,-7.8 -1.1,-11.7 -2.8,-15.3 -4.2,-9.4 -12,-16.3 -21.9,-19.6 -5.8,-2 -8.3,-2.1 -37,-2 -16.9,0.1 -32.5,0.5 -34.6,1 z m 68.9,17.7 C 216.8,49 220,55.1 220,66.5 V 74 h -46 -46 v -6.8 c 0,-11.5 3.2,-18.1 10.4,-21.9 5,-2.7 9.5,-3 38.7,-2.8 25.4,0.2 27.8,0.4 31.5,2.3 z" />
    <path
       style="fill:#ffffff;stroke:none;stroke-width:0.1"
       inkscape:connector-curvature="0"
       id="path14"
       d="m 160.7,214.8 -2.7,2.8 v 17.3 c 0,10.4 0.4,18 1.1,19.3 1.6,3 7.1,4.8 14.9,4.8 7.8,0 13.3,-1.8 14.9,-4.8 0.7,-1.3 1.1,-8.9 1.1,-19.3 v -17.3 l -2.7,-2.8 c -2.6,-2.7 -3,-2.8 -13.3,-2.8 -10.3,0 -10.7,0.1 -13.3,2.8 z" />
    <path
       style="fill:#ffffff;stroke:none;stroke-width:0.1"
       inkscape:connector-curvature="0"
       id="path16"
       d="m 15.2,264.7 c 0.3,37.7 0.5,43.2 2,45.8 2.6,4.7 7.9,9.2 12.3,10.5 2.9,0.8 42.4,1 147.1,0.8 l 143.1,-0.3 4,-2.8 c 2.2,-1.5 5,-4.6 6.4,-7 l 2.4,-4.2 0.3,-42.8 c 0.2,-23.5 0,-42.7 -0.4,-42.7 -0.3,0 -30.4,5.8 -66.8,13 -36.5,7.1 -66.6,13 -66.9,13 -0.4,0 -0.7,1.2 -0.7,2.7 0,4.8 -3.9,11.1 -8.4,13.8 -3.9,2.3 -5.3,2.5 -15.6,2.5 -10.3,0 -11.7,-0.2 -15.7,-2.5 -4.6,-2.7 -8.3,-8.5 -8.3,-12.9 0,-3.1 -0.3,-3.3 -9.2,-5.1 C 112.1,240.8 16.2,222 15.6,222 c -0.4,0 -0.6,19.2 -0.4,42.7 z" />
  </g>
</svg>
