<?xml version="1.0" encoding="UTF-8"?>
<svg width="844.02pt" height="844.02pt" version="1.1" viewBox="0 0 844.02 844.02" xmlns="http://www.w3.org/2000/svg">
<defs>
<clipPath id="i">
<path d="m0 0h844.02v844.02h-844.02z"/>
</clipPath>
<clipPath id="h">
<path d="m8.25 8.25h828v828h-828z"/>
</clipPath>
<clipPath id="g">
<path d="m28 126h795.07v481h-795.07z"/>
</clipPath>
<clipPath id="f">
<path d="m132.32 73h660.68v699.43h-660.68z"/>
</clipPath>
<clipPath id="e">
<path d="m131 72.684h662v699.32h-662z"/>
</clipPath>
<clipPath id="d">
<path d="m836 17h8.0156v1h-8.0156z"/>
</clipPath>
<clipPath id="c">
<path d="m17 836h1v8.0156h-1z"/>
</clipPath>
<clipPath id="b">
<path d="m827 836h1v8.0156h-1z"/>
</clipPath>
<clipPath id="a">
<path d="m836 827h8.0156v1h-8.0156z"/>
</clipPath>
</defs>
<g clip-path="url(#i)">
<rect width="844.02" height="844.02" fill="#fff"/>
</g>
<path d="m8.25 8.25h828v828h-828z" fill="#fff"/>
<g clip-path="url(#h)">
<path d="m8.25 8.25h828v828h-828z" fill="#fff"/>
</g>
<g clip-path="url(#g)">
<path d="m182.45 307.23c0.69531 5.4258-2.2266 10.715-7.375 12.941h-62.461c-4.4492-1.8086-7.6523-5.1484-8.9023-8.7695h-64.27c-7.0977-3.3398-11.547-10.715-10.996-18.508 0.42188-6.6797 4.4531-12.527 10.578-15.586 0.97266-10.578 8.625-19.348 18.219-21.016 10.02-1.6719 17.391 4.7305 19.758 7.0977 9.1797-12.527 23.789-19.344 37.562-17.117 9.875 1.5312 19.195 7.6523 25.32 16.84 2.918 4.3125 4.8711 9.043 5.9844 13.914 11.684 0 22.391 8.0742 25.867 19.762 5.4258 0.69922 9.8789 5.0117 10.715 10.441zm640.5-108.97c-0.83594-6.4023-6.1211-11.41-12.523-12.246-4.3125-14.336-17.805-24.078-32.273-23.242-0.55859 0-1.1133 0.13672-1.6719 0.13672-1.1133-5.8438-3.6172-11.828-7.0938-17.113-7.0938-10.578-17.527-17.539-28.938-19.348-15.719-2.3633-32.551 5.2891-42.984 19.762-2.5078-2.5039-10.992-10.156-22.539-8.2109-11.129 1.9453-19.754 11.973-20.867 23.938-6.957 3.4805-11.688 10.16-12.242 17.816-0.55859 8.7656 4.4531 17.254 12.66 21.016h75.68c0.55469 5.0078 4.8672 9.8789 10.852 12.383h73.453c5.8438-2.3633 9.3203-8.6289 8.4883-14.891zm-453.39 397.75c-1.3906-13.223-5.0078-32.566-15.027-53.859-8.207-17.395-18.082-30.477-26.012-39.387-55.094-66.66-59.543-158.51-14.469-221 51.473-71.395 142.46-69.727 150.25-69.449 64.969 0.28125 124.37 35.211 153.31 90.879 17.809 34.238 21.008 74.32 13.496 111.75-4.8711 24.078-13.914 48.434-28.383 68.891-15.719 22.406-39.926 36.047-55.785 58.312-14.469 20.32-21.008 40.918-24.348 55.113-17.945 4.7305-41.457 9.1836-69.277 9.6016-34.641 0.69531-63.441-5.0117-83.75-10.855" fill="#1f588a"/>
</g>
<g clip-path="url(#f)">
<path d="m234.2 447.09c-0.69531-0.97266-0.97266-2.0859-0.69531-3.0586 0.41797-1.8125 2.5039-2.9258 4.7305-2.7852 1.668-1.3906 3.0586-3.0625 4.0352-4.8711 0.83203-1.6719 1.5312-3.4805 1.8086-5.4258 0-0.28125 0.27734-0.55859 0.41797-0.55859 0.27734-0.14062 0.55469-0.14062 0.69531 0 1.668 0.97266 3.4766 1.6719 5.4258 2.0859 2.5039 0.41797 5.0078 0.41797 7.5117-0.27734 0.41797-0.13672 0.83203 0.14062 0.97266 0.41797 1.2539 3.0625 1.9492 6.125 2.2266 9.3242 0.41797 4.7305 1.1133 11.969-3.4766 15.449-1.1133 0.83594-3.4805 2.0859-7.5156 1.668v10.719c0 0.27734-0.13672 0.55469-0.27734 0.69531-0.97266 0.69531-3.1992 2.0859-6.3984 2.0859-0.41797 0-0.97266 0-1.3906-0.13672-4.4531-0.55859-6.8164-3.7578-7.5117-4.7344-0.14062-0.27734-0.14062-0.55469-0.14062-0.83203 0.97266-2.0898 1.668-4.3164 2.0859-6.6836 0.83594-3.6172 0.97266-7.5156 0.69531-11.27-1.3906-0.14062-2.5039-0.83594-3.1992-1.8125zm101.7 70.699c-0.13672 0.14062-0.41797 0.27734-0.69531 0.14062l-7.7891-2.9219c0.55469 2.3633 0.41797 3.4766-0.41797 3.8945-0.14062 0.14062-0.41797 0.14062-0.55859 0.14062-0.55469 0-1.1133-0.41797-1.9453-0.97656-0.69531-0.41406-1.3906-0.97266-2.5039-1.5273-1.1133-0.55859-2.5039-1.1133-3.7578-1.3945-0.13672 0-0.41797-0.13672-0.41797-0.41797-0.13672-0.13672-0.13672-0.41406 0-0.55469l3.1992-6.2617c0.14062-0.14062 0.28125-0.28125 0.55859-0.41797 1.5312-0.14062 5.7031-0.27734 9.4609 2.5039 3.1992 2.3672 4.4492 5.4297 4.8672 7.0977 0.27734 0.27734 0.14062 0.55859 0 0.69531zm-176.26 0.69531c-1.9453 0.41797-3.7539 0.97656-5.4258 1.8125-1.5312 0.69531-2.6445 1.5273-3.4766 2.2266-0.97656 0.69531-1.8086 1.25-2.5039 1.25-0.27734 0-0.41797 0-0.69531-0.13672-0.97266-0.55859-0.97266-2.0898-0.27734-5.0117l-13.637 2.3672c-0.27734 0-0.69531-0.14062-0.83594-0.41797-0.13672-0.27734-0.13672-0.55859 0-0.83594 2.5039-3.6172 5.9844-6.6797 9.8789-8.7695 5.0039-2.7812 9.875-3.4766 13.074-3.4766 0.42188 0 0.69531 0.13672 0.83984 0.55469l3.7539 9.6055c0.14062 0.27734 0.14062 0.41406 0 0.69531-0.27734 0-0.55469 0.13672-0.69531 0.13672zm108.79 75.57c-4.8672-16.977-9.875-34.234-15.164-51.492-1.25-4.3164-2.6406-8.6289-3.8945-12.941-0.27734 0-0.55469-0.14062-0.69531-0.14062l-32.832-8.6289c-0.27734 0-0.55469-0.14062-0.83594-0.14062-5.8398 8.4922-11.824 17.121-17.668 25.609 0 0.14062-0.13672 0.14062-0.13672 0.27734l-7.5117 27.836-25.32-26.723c-0.27734-0.27734-0.83594-0.27734-1.1133 0l-8.0625 7.5156c-0.28125 0.27734-0.28125 0.55859-0.14453 0.97266 5.0117 11.137 11.129 21.852 17.945 31.871 9.043 13.223 14.051 20.598 20.031 20.875h0.55859c15.582 0 28.656-34.652 31.441-42.723l25.039 38.688 22.539 59.148c0.13672 0.14062 0.27734 0.41797 0.41406 0.41797h0.55859l11.547-4.5938c0.41797-0.14062 0.55469-0.55469 0.41797-0.97266-5.5664-21.434-11.27-43.145-17.113-64.855zm378.54-51.91-0.14062-0.27734c-2.0859-1.8086-4.0352-3.8984-5.4258-6.2617-1.1133-1.8125-2.0859-3.7578-2.7812-5.8477 0.83203-2.6445-0.28125-5.4258-2.3672-6.4023-1.9453-0.83203-3.7539 0-4.4492 0.41797-1.6719-0.13672-3.3398-0.41797-4.8711-0.97266-1.9492-0.83594-3.7578-1.9492-5.4258-3.4805l-1.1133-0.97266-0.27734 1.3906c-0.41797 2.0859-1.2539 4.0352-2.5039 5.8438-0.97266 1.3945-2.2266 2.6445-3.6172 3.7578l-0.27734 0.14062v0.27734c-0.41797 2.3672-0.41797 5.8477 1.3906 9.3242 2.0859 4.1758 6.8164 8.4922 12.102 7.793 1.3906-0.13672 2.7852-0.69531 4.0352-1.5273l3.4766 3.1992c0.83594 1.5312 2.2266 2.7812 4.0352 3.3398 0.69531 0.27734 1.3906 0.27734 2.2266 0.27734 1.1133 0 2.2266-0.27734 3.1992-0.83594 3.1992-1.5273 4.5898-5.7031 2.7812-9.1836zm98.492 27c5.2891 1.5312 10.715 2.5039 16.141 2.7812 1.9453 0.14062 3.6172 0.14062 5.0078 0.14062 4.8672 0 6.8164-0.55469 7.2344-1.9492 0.27734-1.3906-0.55859-3.1992-14.609-8.6289 4.0352-2.6445 4.5898-3.7578 4.1758-4.7305-0.41797-0.97266-0.97656-2.2266-17.949 2.7852-0.27734 0.13672-0.55469 0.41406-0.55469 0.83203v8.0742c0 0.27734 0.27734 0.69531 0.55469 0.69531zm-165.83 34.652c-2.3633-0.55469-4.4492-0.97266-6.1211-1.3906l-1.25-0.27734c-3.1992-0.83594-4.4531-1.1133-5.9844-0.69922-1.8086 0.41797-3.4766 1.6719-4.8672 3.6211-0.14062 0.13672-0.14062 0.41797-0.14062 0.69531s0.14062 0.41797 0.41797 0.55469l7.9297 4.0391c-1.2539 2.7812-1.5312 4.4531-0.55469 5.4258 0.27734 0.27734 0.69531 0.41797 1.25 0.41797 0.69531 0 1.8086-0.27734 3.6172-0.69531 0.69531-0.14062 1.3906-0.41797 2.3633-0.55859 1.3945-0.41797 2.6445-0.69531 3.4805-0.83203 0.41797-0.14062 0.55469-0.41797 0.55469-0.83594v-8.4883c0-0.55859-0.27734-0.83594-0.69531-0.97656zm212.43-6.2617c-0.13672-1.3906-0.41797-3.6172-36.449-2.0898h-0.55469l-0.14062 0.55859c-2.7812 9.8828-4.8672 20.039-6.3984 30.199-0.97266 6.8203-1.8086 13.641-2.2266 20.598l-11.688-5.707c0.97656-1.8086 1.8086-3.7578 2.7852-5.8438 0.83203-1.9492 0.13672-4.3125-1.5312-5.5664l-47.996-34.098-0.41797 0.41797c-5.0078 4.1758-10.293 7.9336-15.719 11.273-4.5898 2.7812-9.4609 5.4258-14.469 7.6523l-0.41797 0.28125 0.83594 56.5c0 1.5312 0.83594 2.9258 2.0859 3.7578 0.83594 0.55859 1.668 0.83594 2.5039 0.83594 0.55859 0 1.1133-0.13672 1.668-0.27734 0.41797-0.14062 0.83594-0.27734 1.2539-0.41797l-2.3633 15.867 7.2305 68.887c-21.281 5.9844-22.676 8.0742-22.535 9.7422 0.14062 0.97656 0.41797 2.3672 11.129 2.3672 5.0078 0 12.242-0.27734 22.953-1.1133h0.69922l3.4766-80.859 1.5312-21.848c4.8672-1.1133 8.9023-1.9492 12.379-2.5078 6.5391-1.1133 11.27-1.9453 16.555-4.8711 1.3945-0.69531 2.6445-1.5312 3.8984-2.3633 4.1719 4.7305 9.1797 8.4883 14.746 11.133 4.7305 2.2266 9.5977 4.5938 14.188 4.5938 1.3945 0 2.7852-0.28125 4.1758-0.83594 9.4609-3.7578 10.711-20.18 12.102-39.109 0.69531-9.1836 0.69531-18.367 0-27.414 27.129-6.543 26.852-8.4883 26.711-9.7422zm-377.29-475.96c1.5312 2.9258 2.3672 6.1289 2.6445 9.3242 0.14062 2.5078-0.14062 5.0117-0.69531 7.3789v0.55859c1.1133 2.5 3.6172 4.3125 6.3984 4.3125h0.27734c2.6445-0.13672 5.0117-1.8125 6.1211-4.3125 0.14062-0.14062 0.14062-0.41797 0-0.55859-1.1094-2.9219-1.1094-5.1484-0.13672-6.543 0.69531-0.97266 1.5312-1.1133 2.6445-1.3906 1.1094-0.27734 2.3633-0.55469 3.6133-1.5352 4.3164-3.6133 3.0625-11.547 2.0898-17.949-0.41797-2.5039-0.97656-4.8711-1.6719-7.2344 0-0.27734-0.27734-0.41797-0.41797-0.41797-0.13672-0.14453-0.41406-0.14453-0.69531 0-2.7812 1.1133-5.8398 1.5312-8.9023 1.5312-2.7812 0-5.7031-0.55859-8.3477-1.5312-0.27734-0.14453-0.55469 0-0.83203 0.14062-0.28125 0.13672-0.28125 0.55469-0.14062 0.83203 0.41797 1.2539 1.1133 3.6172 0.27734 6.2617-0.27734 1.1133-0.83594 2.2266-1.5312 3.2031-1.8086 0.27734-3.3359 1.668-3.6172 3.6172-0.13672 1.8086 1.1133 3.6172 2.9219 4.3125zm138.01 170.34-40.762-53.16-0.28125-0.28125-61.07-29.504c-0.14062 0-0.27734-0.14062-0.41797-0.14062l-46.047 4.875c-0.41797 0-0.69531 0.41797-0.69531 0.83594v27.832c0 0.27734 0.13672 0.41797 0.27734 0.55859l55.648 45.926 23.926 52.465c0.14062 0.28125 0.41797 0.41797 0.69531 0.41797h0.14062l14.469-2.6445c0.27734 0 0.41797-0.13672 0.55469-0.41797 0.14062-0.13672 0.14062-0.41406 0.14062-0.69531l-15.859-63.043c0-0.14062-0.14062-0.27734-0.14062-0.41797l-30.051-31.453 44.938 13.223 43.266 50.102c0.14062 0.13672 0.41797 0.27734 0.69531 0.27734s0.41797-0.14062 0.55469-0.27734l10.438-13.918c-0.28125 0-0.28125-0.27734-0.41797-0.55469zm-89.594-148.21 9.3203-7.793c0.14062-0.14453 0.14062-0.14453 0.27734-0.28125l18.367-45.508c4.3125-0.69531 8.207-2.5039 11.266-5.1523 1.3906-1.25 5.9844-5.4258 4.5938-7.6523-0.83594-1.3945-3.3398-1.9492-16 2.9219 0.14062-6.1211-0.41797-6.6797-1.2539-6.8164-1.1094-0.14062-1.9453 0.41406-4.7266 10.438l-23.234 40.914-8.3477 7.1016c-0.27734 0.13672-0.27734 0.55469-0.27734 0.83203 0.83594 2.7812 2.0859 5.1484 3.8945 7.375 1.3906 1.6719 2.9219 3.0625 4.8711 4.1758 0.13672 0.14062 0.27734 0.14062 0.41406 0.14062 0.14062 0 0.41797 0 0.55859-0.14062l0.27734-0.55469m-77.348-5.9844c-2.2266-0.27734-4.4531-0.69531-6.6797-0.97266l-37.84-31.875c-9.3203-12.523-10.293-11.828-11.27-11.27-0.69531 0.41406-0.97266 1.3906 0.14062 4.8711-11.965-4.7344-13.078-2.9219-13.633-2.0859-0.28125 0.55469-0.41797 1.25-0.14062 2.0859 0.97266 2.7852 5.1484 7.0938 10.156 9.1836 2.2266 0.97266 4.7305 1.3906 7.2344 1.3906l32.555 38.273c0.13672 0.14062 0.13672 0.14062 0.27734 0.27734 4.3125 1.3906 8.625 2.7812 12.797 4.1719l0.83594-0.55078 0.55469-1.1172c0.69922-1.3906 2.6445-5.2891 2.7852-5.4258 0.83203-1.5312 1.668-3.7539 2.2266-6.957zm96.547 273.33c4.7305 4.4531 14.328 0.83203 26.152-3.4805 6.957-2.5039 51.059-18.648 50.781-50.102-0.14062-15.867-11.547-35.352-25.043-36.465-28.379-2.3633-65.941 76.824-51.891 90.047zm-89.312-3.7578c-4.7305 4.4531-14.332 0.83203-26.156-3.4805-6.957-2.5039-51.055-18.648-50.777-50.102 0.13672-15.867 11.547-35.352 25.039-36.465 28.52-2.3633 65.945 76.824 51.895 90.047" fill="#fff"/>
</g>
<path d="m563.49 495.25c-2.7812 2.7812-17.25 17.672-27.961 42.445-6.2617 14.613-10.02 30.199-11.41 46.762-28.938 6.957-58.707 10.297-88.477 10.02-27.406-0.14062-54.812-3.4805-81.523-9.7422-0.69531-5.2891-1.8086-10.438-2.9219-15.586l49.523-106.33c0.55859-1.25 0-2.6445-1.1133-3.1992-1.25-0.55859-2.6406 0-3.1992 1.1133l-8.0664 17.395h-65.109l9.3203-20.598c0.55859-1.25 0-2.6406-1.25-3.1992-1.2539-0.55469-2.6445 0-3.1992 1.2539l-10.992 24.074-5.2852 11.551-0.55859-0.55469c-54.395-65.828-60.375-156.29-14.465-220.03 50.914-70.418 139.54-69.445 149.55-69.027 65.246 0.27734 123.82 34.934 152.61 90.324 34.5 65.688 19.754 149.19-35.477 203.33zm-55.926 127.34c-21.703 4.0352-43.961 6.1211-66.082 6.1211h-1.3906c-21.562-0.13672-43.402-2.0859-64.688-5.9805-0.83594-0.14062-1.3945-0.97656-1.2539-1.8125 0.14062-0.83203 0.97266-1.3906 1.8086-1.25 21.145 3.8945 42.711 5.9844 64.133 5.9844 22.398 0.13672 44.797-1.9492 66.777-5.9844 0.83594-0.14062 1.668 0.41797 1.8086 1.25 0.27734 0.69531-0.27734 1.5312-1.1133 1.6719zm-1.668 27.418c-21.703 4.0352-43.961 6.1211-66.082 6.1211h-1.3906c-21.562-0.13672-43.406-2.0859-64.691-5.9844-0.83203-0.13672-1.3906-0.97266-1.25-1.8086 0.13672-0.83594 0.97266-1.3906 1.8086-1.2539 21.145 3.8984 42.707 5.9844 64.133 5.9844 22.398 0.14062 44.797-1.9453 66.777-5.9844 0.83203-0.13672 1.668 0.41797 1.8086 1.2539 0.41406 0.69531-0.14062 1.5312-1.1133 1.6719zm-0.69531 27.277c-21.703 4.0352-43.961 6.1211-66.082 6.1211h-1.3906c-21.562-0.13672-43.406-2.0859-64.691-5.9844-0.83594-0.13672-1.3906-0.97266-1.25-1.8086 0.13672-0.83594 0.97266-1.3906 1.8086-1.2539 21.145 3.8984 42.707 5.9844 64.133 5.9844 22.258 0 44.797-1.9453 66.777-5.9844 0.83203-0.13672 1.668 0.41797 1.8086 1.2539 0.27734 0.69531-0.28125 1.5312-1.1133 1.6719zm-161.24-103.82h-64.133l13.215-28.945h49.109c2.5039 6.4023 4.5898 12.805 6.2578 19.484zm-13.496 28.809h-63.855l10.992-24.074h64.133zm-15.301 32.844h-63.438l12.797-27.973h63.715zm-13.914 30.062h-63.16l11.41-25.191h63.438zm-15.441 33.121h-62.883l12.941-28.25h63.156zm-13.773 29.504h-62.465l11.27-24.77h62.742zm34.223-212.65h21.148c2.7812 4.5938 5.8398 9.8828 8.625 15.727 1.3906 2.9219 2.6406 5.8477 3.8945 8.7695h-44.797zm8.3477-18.23c2.6445 3.3398 6.1211 7.793 9.7383 13.359h-15.859zm11.688 13.359c-4.1758-6.4023-8.0703-11.551-10.992-15.027l5.5664-12.25h65.105l-12.66 27.277zm31.16 34.238-8.0664 17.258c-1.5312-5.8477-3.4805-11.691-5.5664-17.258zm-15.578-4.8711c-1.3945-3.2031-2.7852-6.4023-4.3125-9.6055-2.6445-5.5664-5.4258-10.574-8.2109-15.027h41.738l-11.41 24.492zm258.76-248.42c-29.215-55.945-88.199-90.875-154-91.293-10.016-0.42188-99.609-1.3945-150.94 69.723-22.121 30.617-32.973 69.445-30.469 109.39 2.5039 40.359 18.363 80.305 44.938 112.59l0.97266 1.1133-8.625 18.93-13.355 29.363-15.305 33.82-28.102 61.652-28.797 63.184-13.496 29.504-7.9297 17.258c-0.55469 1.25 0 2.6406 1.2539 3.1992 0.27734 0.14062 0.69531 0.27734 0.97266 0.27734 0.97656 0 1.8086-0.55469 2.2266-1.3906l7.2344-16.004h62.465l-6.5391 13.918c-0.55859 1.25 0 2.6406 1.1133 3.1992 0.27734 0.14062 0.69531 0.27734 0.97266 0.27734 0.97266 0 1.8086-0.55469 2.2266-1.3906l82.496-177.02c0.97266 4.3125 1.8086 8.625 2.3672 13.082-0.28125 0-0.55859-0.14062-0.83594-0.14062v112.87c13.773 7.9336 41.598 21.57 79.156 23.102 45.91 1.9492 79.855-15.168 93.629-23.102 0.27734-16.004 0.55469-32.148 0.83594-48.152-1.6719 2.6445-3.6172 4.7305-5.1484 4.4531-3.7578-0.97656-4.3125-17.812-0.69531-19.066 1.5273-0.41797 3.6172 1.668 5.9805 4.7305 0.27734-18.23 0.69531-36.461 0.97266-54.832-0.27734 0-0.55469 0.14062-0.83203 0.14062 1.25-16.285 5.0078-31.871 11.266-46.344 10.574-24.637 24.766-39.246 27.547-42.031 56.203-54.414 70.949-138.75 36.449-205"/>
<path d="m686.89 535.05c0 3.8984-3.0625 7.9336-7.375 9.4648-3.7539 1.3906-8.7617 0.69531-11.129-2.3672-3.6172-4.5938 0.97266-11.969-2.0859-14.055-1.9492-1.2539-4.4531 1.5312-8.625 1.25-4.5898-0.27734-8.207-4.4531-10.434-8.0703 0.41797 1.8086 0.97266 5.5664-0.14062 10.02-0.97266 3.8984-2.9219 6.6797-4.1719 8.0742-0.83594-0.97656-1.5312-1.9492-2.3672-3.2031-1.5273-2.3672-2.3633-4.4531-2.9219-6.2617 0.97656-2.3672-0.13672-4.8711-1.9453-5.707-1.8086-0.83594-3.7578 0.41797-3.8945 0.41797-1.2539 0-3.2031-0.27734-5.2891-1.1133-2.7812-1.1133-4.5898-2.6445-5.7031-3.6172-0.27734 1.3906-0.97266 3.7578-2.6445 6.1211-1.3906 1.9492-2.7812 3.2031-3.8945 3.8984-0.13672 1.25-0.41797 3.3398 0.14062 5.8438-1.8086-0.69531-7.2344-3.3398-8.9023-8.4883-2.2266-7.0977 3.0586-17.117 14.465-21.57-0.13672-8.2109 3.4805-15.031 9.1836-17.398 4.4531-1.8086 8.9023-0.41797 10.016 0 8.207 2.7852 7.375 10.02 14.609 13.777 8.9023 4.5938 16.973-2.6445 21.145 1.9492 3.4766 3.7578-1.9492 8.9062 1.2539 16.98 3.3359 7.793 10.711 8.2109 10.711 14.055zm-250.14-428.37c-0.13672 0.27734-0.41406 0.55469-0.55469 0.83594-0.27734-1.5312-0.69531-2.7812-0.97266-3.6172-1.9492 0.69531-5.1484 1.668-9.1836 1.5312-3.7539 0-6.6758-0.83594-8.625-1.5312 0.41797 1.1133 1.2539 3.6172 0.27734 6.8164-0.41797 1.6719-1.25 2.9219-1.9453 3.7617-1.6719 0-2.9219 1.25-3.1992 2.918-0.14062 1.668 0.97266 3.2031 2.6406 3.6211 1.1133 1.9453 2.6445 5.4258 2.9219 10.02v1.25c-13.215-4.3125-19.754-16.141-17.25-24.633 2.2266-7.0938 10.293-10.16 11.688-10.715 2.5039-5.707 7.6484-9.4648 13.492-9.7422 5.8438-0.14062 13.078 3.4805 14.051 9.7422 0.97656 4.8711-2.7812 9.0469-3.3398 9.7422zm-168.05 397.19c-0.27734 1.6719-0.69531 3.2031-1.1094 4.7344-3.4805 9.8789-11.828 15.031-16.695 17.117 3.1992-8.4883 6.3984-16.84 9.4609-25.328zm-4.8672-76.68c-1.2539 4.3125-2.6445 8.6289-3.8945 12.941-0.41797-3.1992-1.2539-5.707-1.9492-7.5156-1.5312 0.41797-4.4492 0.97266-7.7891 0.27734-2.5039-0.41797-4.4531-1.3906-5.7031-2.2266-0.28125 1.3945-0.69531 3.4805-1.9492 5.707-1.3906 2.6445-3.3398 4.4531-4.4531 5.2891-2.0859-0.27734-3.8945 0.83594-4.1719 2.2266-0.41797 1.668 1.1133 4.0352 3.7578 4.1758 0.41406 3.0625 0.41406 7.2344-0.55859 12.105-0.55469 2.6445-1.3906 4.8711-2.2266 6.8203l-14.746-2.5039-20.59 18.926c-1.25-2.7812-1.9453-5.707-0.83203-9.1836 2.6406-8.0742 10.57-6.8203 14.746-16.145 3.7539-8.6289-1.6719-12.527 1.668-21.434 3.3398-8.7656 12.383-14.473 20.59-16.422 15.301-3.7578 26.988 5.8477 28.102 6.9609zm-59.266 74.453c-2.3633 12.945-17.387 16.98-15.719 25.469 1.1133 5.2891 7.7891 8.7695 14.746 10.719l11.27-17.258 1.1133-27.277zm55.508-60.121c0-0.55469-0.13672-1.1133-0.13672-1.5312 1.25 1.9492 4.4492 6.8203 4.1719 13.641-0.27734 9.1836-6.2578 15.309-9.1797 17.676l-5.8438-2.0898v-11.551c4.5898 0.69531 6.957-0.83594 7.7891-1.3906 4.1758-3.2031 3.6172-10.16 3.1992-14.754"/>
<path d="m107.46 309.04h62.043c4.8672-2.0898 7.6484-7.0977 6.9531-12.25-0.69531-5.1484-4.8672-9.1836-10.016-9.8789h-0.41797l-0.13672-0.41797c-3.3398-11.273-13.77-19.207-25.18-19.207h-0.55469l-0.14062-0.55469c-1.1094-4.7305-3.1953-9.4648-5.9805-13.641-6.1211-9.043-15.164-15.027-24.762-16.559-13.359-2.0898-27.824 4.5898-36.867 16.84l-0.41797 0.69531-0.55469-0.55859c-2.0859-2.0859-9.3242-8.4883-19.062-6.8164-9.3203 1.5273-16.832 10.156-17.668 20.316v0.41797l-0.41797 0.14062c-5.8438 2.9219-9.7383 8.6289-10.293 15.027-0.55469 7.3789 3.7539 14.477 10.574 17.676h64.551l0.14062 0.41797c1.1094 3.6172 4.1719 6.6797 8.207 8.3516zm62.32 1.5312-62.742-0.14062c-4.3086-1.8086-7.6484-5.0117-9.0391-8.6289h-64.133c-7.375-3.4805-11.965-11.133-11.41-19.066 0.41797-6.6797 4.5898-12.805 10.715-16.004 1.1094-10.578 9.043-19.484 18.781-21.156 9.5977-1.668 16.973 4.1758 19.754 6.6836 9.3203-12.387 24.07-18.93 37.699-16.84 10.156 1.5312 19.477 7.793 25.734 17.117 2.7852 4.1758 4.8711 8.7656 5.9844 13.637 11.688 0.28125 22.258 8.3516 25.875 19.766 5.5625 0.97266 10.016 5.4258 10.852 10.992 0.83203 5.707-2.3672 11.414-7.793 13.641zm566.07-108.28h73.039c5.7031-2.3633 9.0391-8.3516 8.207-14.336-0.83594-6.1211-5.7031-10.852-11.965-11.547h-0.41797l-0.13672-0.41797c-4.1758-14.059-17.391-23.66-31.582-22.688-0.41797 0-0.97266 0.14062-1.3906 0.14062l-0.83594 0.13672-0.13672-0.69531c-1.1133-5.8438-3.6172-11.688-7.0977-16.836-6.9531-10.301-17.25-17.262-28.379-18.93-15.441-2.3672-31.996 5.2891-42.293 19.484l-0.41797 0.69531-0.55469-0.55469c-2.3633-2.3711-10.711-9.8828-21.98-8.0742-10.711 1.8125-19.336 11.691-20.312 23.383v0.41406l-0.41797 0.14062c-6.8164 3.3398-11.266 9.8828-11.824 17.254-0.55469 8.3516 4.3125 16.566 12.105 20.324h76.098l0.13672 0.55078c0.41797 4.5977 4.4531 9.1914 10.156 11.555zm73.316 1.3906-73.734-0.13672c-5.9805-2.5039-10.293-7.2383-11.129-12.246h-75.402c-8.3477-3.8984-13.633-12.668-12.938-21.715 0.55859-7.6523 5.1484-14.609 12.242-18.227 1.2539-12.113 10.156-22.27 21.426-24.219 11.129-1.8125 19.613 4.8711 22.676 7.793 10.711-14.191 27.543-21.848 43.125-19.344 11.547 1.8086 22.262 8.9062 29.355 19.625 3.4766 5.1484 5.8438 10.855 7.0938 16.84 0.27734 0 0.69531-0.14062 0.97266-0.14062 14.609-0.97266 28.383 8.7695 32.832 23.242 6.5391 0.97266 11.688 6.125 12.66 12.801 0.97656 6.6797-2.7812 13.223-9.1797 15.727"/>
<path d="m541.65 306.25 8.625 7.2383c9.043-9.3242 17.945-18.648 26.988-28.113-1.8086-1.2539-4.4531-2.6445-7.5117-2.3672-3.6172 0.41797-5.4258 3.0625-10.715 6.6797-2.3633 1.6719-5.2852 3.3438-8.7617 5.0117zm-57.875 34.652c0.97266 3.7578 1.9492 7.5156 2.9219 11.273 13.355-2.5039 26.57-5.0078 39.926-7.5156-0.83203-2.2266-2.5039-5.4258-5.4258-6.6797-3.4766-1.3906-6.3984 0.69531-12.102 1.3945-2.9219 0.41406-7.2344 0.55469-12.938-0.69922zm85 279.73c3.0625-5.9844 2.6445-12.664-0.97266-16.281-2.6445-2.6445-8.0703-5.0117-11.129-2.5078-1.9492 1.6719-2.6445 5.1523-1.668 8.4922 0.13672 0.27734 0 0.55469-0.14062 0.69531 4.5898 3.3398 9.3203 6.4023 13.91 9.6016zm9.8789 6.6797c-1.9492 3.8984-4.4531 8.0742-7.5117 12.387-3.1992 4.7305-6.5391 8.6289-9.6016 11.969-2.6406-1.8086-5.4258-3.6172-8.0664-5.2891l-27.965-0.55469c-1.25 2.7812-2.5039 4.5898-3.3359 4.4531-2.0898-0.41797-2.5039-11.832-0.41797-12.387 0.97266-0.27734 2.3633 1.5312 3.8945 4.1758 5.2852-1.3945 10.574-2.9219 15.719-4.3164-2.6406-2.5039-5.4258-5.0078-8.0664-7.5156 1.3906-3.8945 3.8945-9.1836 8.207-14.613 2.7812-3.4766 5.7031-5.9805 8.0703-7.9297 1.25 0.83203 2.5039 1.668 3.6172 2.5039-0.97656-3.8984 0-7.5156 2.3633-9.4648 3.8945-3.1992 10.293-0.55469 13.355 2.5078 4.1719 4.3125 4.7305 11.551 1.2539 18.23 2.7812 1.9492 5.7031 3.8945 8.4844 5.8438zm-23.789-266.23c-2.6445-5.7031-8.625-11.41-14.191-11.41h-0.69531c-9.043 0.69531-15.164 16.422-21.145 31.453-5.5664 13.918-10.297 25.887-14.328 36.184 13.633-1.668 26.293-7.375 35.195-15.727 9.4609-8.7656 21.285-27 15.164-40.5zm-174.18 53.027c-12.52-42.586-26.711-67.918-38.398-67.918h-0.27734c-8.4844 0.28125-17.945 14.477-17.945 27.141 0 19.484 24.066 33.816 39.371 38.133 0 0 7.6523 2.2266 17.25 2.6445zm162.35-8.9102c-10.297 9.6055-24.902 15.867-40.484 17.258-8.625 22.129-14.191 36.883-15.441 42.867-6.5391 30.477-8.4883 62.07-5.7031 93.52l-4.8711 0.41797c-2.7812-32.008-0.83594-64.016 5.8438-95.051 1.25-5.9844 6.3984-19.766 14.887-41.473v-0.14062c-14.609 0.27734-27.129-4.0352-33.945-11.969-5.7031-6.4023-7.375-14.754-8.7656-22.129-1.5312-7.9336-2.9219-14.891-8.7656-17.117-2.5039-0.97266-5.5625-0.97266-8.7617 0-6.2617 2.0859-8.3477 8.2109-10.852 16.004-2.2266 6.6797-4.7305 14.336-10.711 20.457-6.6797 6.6797-16.141 10.438-28.242 10.996v0.14062c4.4492 16.004 8.3477 33.262 10.988 48.707 4.8711 28.949 6.4023 58.453 4.5938 87.957l-4.8711-0.27734c1.8086-29.086 0.27734-58.312-4.5898-86.844-2.6445-15.727-6.6797-33.262-11.27-49.543-10.988-0.28125-19.617-2.7852-20.031-2.9258-17.254-5.0078-42.852-20.457-42.852-42.863 0-14.055 10.438-31.453 22.539-31.871 18.641-0.69531 34.082 38.828 43.82 72.789 11.41-0.28125 20.312-3.4805 26.156-9.6055 5.2852-5.2891 7.5117-12.105 9.5977-18.508 2.7852-8.3516 5.2891-16.145 13.914-19.066 4.3125-1.3906 8.4844-1.3906 12.102 0 8.207 3.1992 9.8789 11.691 11.688 20.598 1.3906 7.0977 2.9219 14.473 7.6523 19.898 6.2578 7.0977 18.223 10.855 32.273 10.16 4.1719-10.715 9.1836-23.52 15.164-38.41 6.8164-17.258 13.215-33.539 25.18-34.516 8.3477-0.69531 16.418 6.8203 19.754 14.195 7.9297 17.398-6.9531 37.855-15.996 46.344zm-269.75 258.86c0.83203 2.2266 1.5312 4.3125 2.3633 6.5391 20.035-5.1484 29.773-8.4883 29.492-10.297-0.27734-1.3906-6.9531-1.6719-20.309-0.83594zm-117.55-108.27c-16.414 6.1211-25.039 8.2109-26.012 6.3984-0.97266-1.9453 7.6523-8.9062 26.012-20.875l8.0664 6.8203-8.0664 7.6562"/>
<path d="m235.31 466.02c-5.0078-0.55859-10.156-1.2539-15.164-1.8086l-29.492 27.277c-12.242 5.2852-24.484 10.715-36.586 16.004 1.1172 3.8945 2.3672 7.6523 3.4805 11.551 12.656-3.6172 25.176-7.2383 37.836-10.855l20.867-15.031-1.1133 27.418c3.0625 2.2266 7.7891 5.2891 14.191 7.2344 8.625 2.6445 15.996 2.2266 20.172 1.6719 3.6172-9.7422 7.3711-19.484 10.988-29.227l20.453 8.0742c12.938 2.3633 25.875 4.7305 38.672 6.957 1.6719-2.6445 3.1992-5.2891 4.8711-7.9336-11.965-3.4805-24.066-7.0977-36.031-10.578l-28.102-23.656c-3.6172-1.5312-7.0977-3.0625-10.715-4.5938-0.41797 0.41797-3.1992 2.7852-7.3711 2.2266-4.4531-0.41797-6.6797-4.3125-6.957-4.7305zm181.41-327.75c-5.1484-0.13672-10.434-0.42188-15.582-0.55859-6.1211-0.27734-12.379-0.41406-18.5-0.69531-0.41797 1.8125-0.97656 4.0352-1.9492 6.3984-1.3906 3.4805-3.1992 6.2656-4.5898 8.2148 4.0312 1.9492 8.207 3.8984 12.66 5.7031 4.0312 1.6758 7.9297 3.3438 11.684 4.8711 0.27734 10.996 0.69531 22.27 1.3906 33.684 0.41797 7.0938 0.97656 14.195 1.5312 21.016 5.5664 0.97266 12.801 1.8086 21.426 1.1133 12.52-1.1133 22.398-4.8711 28.52-7.9336-1.1133-7.7969-2.0898-16.004-2.7852-24.633-0.83203-9.3281-1.25-18.094-1.5273-26.582 1.9453-2.0898 3.8945-4.1758 5.9805-6.4062 3.7578-3.8906 7.3711-7.5117 10.988-11.133-1.668-0.83203-4.1719-2.3633-6.5352-5.0078-2.0898-2.3633-3.3398-4.8711-3.8984-6.4023-5.2852 1.5312-10.711 3.2031-16.137 5.0117-3.6172 1.1133-7.0938 2.3672-10.574 3.4805-0.27734 0.41797-2.2227 2.7812-5.7031 2.7812-4.0352 0.13672-6.2578-2.6484-6.3984-2.9219zm219.25 410.97c-6.3984 5.707-9.5977 11.273-11.27 15.309-1.3906 3.3398-1.8086 5.5664-3.7539 12.387-1.9492 6.5391-3.7578 11.691-4.8711 15.031-4.0352 2.5039-9.875 5.5664-17.391 7.793-7.2344 2.0859-13.633 2.6445-18.363 2.7812v12.527c3.3398 0.27734 8.2109 0.27734 13.914-0.27734 7.3711-0.69531 16.555-1.6719 26.016-7.2383 10.016-5.8438 15.578-14.195 18.641-19.621 2.6445 3.1992 5.2852 7.0977 8.0703 11.551 3.6172 6.1211 5.9805 11.828 7.6484 16.559 5.4258-2.2266 11.547-5.2852 18.227-9.4609 6.2578-4.0391 11.406-8.2109 15.582-11.969-2.6445-3.2031-6.2617-8.3516-8.7656-15.449-2.0859-5.707-2.7812-10.855-3.0625-14.613 7.6523 3.0625 18.504 6.4023 31.719 7.6562 15.164 1.5312 27.965-0.14062 36.73-2.0898v-11.273h-37.84c-4.3164-2.7812-10.297-6.5391-17.668-10.715-15.164-8.6289-19.477-9.6016-22.398-9.8828-4.0352-0.41406-11.41-0.55469-20.73 4.1758 1.3906 3.2031 0.14062 6.8203-2.6445 8.3516-2.6406 1.3906-5.8398 0.69531-7.7891-1.5312zm106.43 177.44 59.402 0.97656c4.8711-0.14062 8.9062-4.0352 9.3203-8.7695 0.55859-4.8711-2.7812-9.4609-7.6484-10.574 0.41406-0.69922 2.7812-5.0117 0.97266-9.7422-1.9492-5.1523-7.7891-7.9336-13.078-6.9609-6.5391 1.1133-9.1797 7.6562-9.3203 7.9336-1.3906-6.125-6.957-9.4648-11.547-8.2109-3.1992 0.83594-5.7031 4.0352-6.2617 7.9336-3.1992-5.1484-9.5977-7.0977-15.023-4.8711-5.1484 2.2266-8.207 7.9336-6.957 13.637-4.7305 0.28125-8.3477 3.7578-8.9023 7.9336-0.55469 5.1484 3.4766 10.16 9.043 10.715zm-666.79-3.6172 59.402 0.97266c4.8711-0.13672 8.9023-4.0352 9.3203-8.7656 0.55469-4.8711-2.7812-9.4648-7.6523-10.578 0.41797-0.69531 2.7852-5.0078 0.97266-9.7422-1.9453-5.1484-7.7891-7.9336-13.074-6.957-6.5391 1.1133-9.1836 7.6523-9.3203 7.9336-1.3906-6.125-6.957-9.4648-11.547-8.2109-3.1992 0.83203-5.707 4.0352-6.2617 7.9297-3.1992-5.1484-9.6016-7.0977-15.023-4.8711-5.1484 2.2266-8.207 7.9336-6.957 13.641-4.7305 0.27734-8.3477 3.7578-8.9023 7.9336-0.55859 5.1484 3.3359 10.297 9.043 10.715zm480.51-10.438c-0.55469-4.1758-4.3125-7.6562-8.9023-7.9336 1.2539-5.707-1.8086-11.41-6.957-13.637-5.4219-2.3672-11.824-0.28125-15.023 4.8711-0.55469-3.8984-3.0586-7.0977-6.2617-7.9336-4.4492-1.2539-10.152 2.0859-11.543 8.2109-0.14062-0.41797-2.7852-6.8203-9.3242-7.9336-5.2852-0.97266-11.129 1.9492-13.074 6.9609-1.8086 4.7305 0.55469 9.043 0.97266 9.7383-4.8711 1.1133-8.0703 5.707-7.6523 10.578 0.55859 4.7305 4.4531 8.6289 9.3203 8.7695l59.406-0.97656c5.7031-0.69531 9.5977-5.8438 9.043-10.715zm-232.32 0c0.55469-4.1758 4.3125-7.6562 8.9023-7.9336-1.25-5.707 1.8086-11.41 6.957-13.637 5.4258-2.3672 11.824-0.28125 15.023 4.8711 0.55859-3.8984 3.0625-7.0977 6.2617-7.9336 4.4492-1.2539 10.156 2.0859 11.547 8.2109 0.13672-0.41797 2.7812-6.8203 9.3203-7.9336 5.2852-0.97266 11.129 1.9492 13.078 6.9609 1.8086 4.7305-0.55859 9.043-0.97656 9.7383 4.8711 1.1133 8.0703 5.707 7.6523 10.578-0.55469 4.7305-4.4531 8.6289-9.3203 8.7695l-59.402-0.97656c-5.8438-0.69531-9.7383-5.8438-9.043-10.715" fill="#1f588a"/>
<g clip-path="url(#e)">
<path d="m647.38 541.73c0.28125-0.27734 0.28125-0.69531-0.13672-0.97266-2.0859-1.8086-3.8945-3.7578-5.2891-6.125-1.1094-1.668-1.9453-3.4805-2.6406-5.4258 0.83203-2.9219-0.41797-5.9844-2.9219-7.0977-2.0859-0.97656-4.0352-0.14062-4.8711 0.27734-1.5273-0.14062-3.0586-0.41797-4.4492-0.97266-1.9492-0.69922-3.6172-1.8125-5.1484-3.3438l-1.1133-0.97266c-0.14062-0.14062-0.41797-0.27734-0.69531-0.14062-0.27734 0.14062-0.41797 0.28125-0.41797 0.55859l-0.27734 1.3906c-0.41797 1.9492-1.2539 3.8984-2.3633 5.5664-0.97656 1.3945-2.0898 2.5078-3.4805 3.6211l-0.27734 0.13672c-0.14062 0.14062-0.27734 0.28125-0.27734 0.41797v0.27734c-0.41797 2.3672-0.41797 6.125 1.3906 9.7422 2.2266 4.4531 7.2344 8.7695 12.797 8.2109 1.3906-0.13672 2.6445-0.55469 3.8984-1.3906l3.0586 2.9219c0.14062 0.14062 0.27734 0.14062 0.41797 0.14062 0.13672 0 0.41797-0.14062 0.55469-0.27734 0.28125-0.28125 0.28125-0.69531 0-0.97656l-3.4766-3.1992c-0.27734-0.27734-0.55469-0.27734-0.83594-0.14062-1.25 0.83594-2.5039 1.2539-3.7539 1.3945-4.8711 0.55469-9.3203-3.4805-11.41-7.5156-1.668-3.3398-1.668-6.6836-1.25-8.9102v-0.13672c1.5312-1.1133 2.7812-2.3672 3.8945-3.8984 1.2539-1.8086 2.0859-3.8945 2.6445-5.9844v-0.13672l0.13672 0.13672c1.6719 1.5312 3.4805 2.7852 5.5664 3.6211 1.668 0.55469 3.3398 0.97266 5.0078 1.1133 0.14062 0 0.27734 0 0.41797-0.14062 0.55469-0.41797 2.2266-1.1133 3.8945-0.41797 1.8086 0.83594 2.7812 3.3398 2.0859 5.5664v0.41797c0.69531 2.0859 1.6719 4.0352 2.9219 5.9844 1.5312 2.3672 3.4766 4.5938 5.7031 6.4023 0 0.55469 0.41797 0.55469 0.69531 0.27734zm98.359 17.816c16.414-4.8711 16.973-3.6211 17.109-3.2031 0.14062 0.41797 0 1.2539-3.8945 3.8984-0.27734 0.13672-0.27734 0.41797-0.27734 0.69531s0.13672 0.41797 0.41797 0.55469c9.875 3.8984 14.605 6.4023 14.188 7.9336-0.27734 0.97266-2.3633 1.3906-6.5391 1.3906-1.3906 0-2.918 0-5.0078-0.13672-5.4258-0.28125-10.852-1.1133-15.996-2.6445-0.41797-0.14062-0.69531 0.13672-0.83594 0.41797-0.14062 0.41797 0.14062 0.69531 0.41797 0.83203 5.2852 1.5312 10.852 2.5078 16.414 2.7852 2.0898 0.14062 3.6172 0.14062 5.0078 0.14062 4.4531 0 7.375-0.41797 7.793-2.5078 0.41797-1.8086-0.41797-3.7578-13.914-9.043 3.0625-2.2266 3.8984-3.4805 3.3398-4.8711-0.55469-1.5312-1.25-2.9258-18.781 2.3633-0.41797 0.14062-0.55469 0.55859-0.41797 0.83594 0.14062 0.27734 0.55859 0.69531 0.97656 0.55859zm-166.25 53.023c-0.83594 0.13672-2.0898 0.55469-3.4805 0.83203-0.83203 0.14062-1.3906 0.41797-2.0859 0.55859l-0.27734 0.14062c-1.6719 0.41406-2.7812 0.69531-3.4766 0.69531-0.41797 0-0.55859-0.14062-0.69922-0.28125-0.69531-0.69531-0.41406-2.2266 0.69922-4.5898 0.13672-0.28125 0-0.69531-0.28125-0.97656l-7.9297-4.0352v-0.13672c1.2539-1.8125 2.7852-2.9258 4.5938-3.3438 1.3906-0.41406 2.5039-0.13672 5.7031 0.69922l1.25 0.27734c1.6719 0.41797 3.7578 0.83594 6.1211 1.3906 0.41797 0.14062 0.69531-0.13672 0.83594-0.55469s-0.14062-0.69922-0.55859-0.83594c-2.3633-0.55859-4.4492-0.97656-6.1211-1.3906l-1.25-0.28125c-3.1992-0.83203-4.5898-1.1133-6.3984-0.69531-2.0898 0.55859-3.7578 1.8086-5.2891 3.8984-0.27734 0.41797-0.27734 0.83594-0.27734 1.25 0.14062 0.41797 0.41797 0.83594 0.83594 0.97656l7.3711 3.7578c-0.83203 1.8086-1.5273 4.1758-0.13672 5.5664 0.41797 0.41797 0.97266 0.69531 1.668 0.69531 0.83594 0 1.9492-0.27734 3.7578-0.83594l0.27734-0.13672c0.55469-0.14062 1.25-0.28125 2.0859-0.55859 1.3906-0.41797 2.6445-0.69531 3.4805-0.83594 0.41406-0.13672 0.55469-0.41797 0.55469-0.83203-0.14062-0.28125-0.55469-0.55859-0.97266-0.41797zm211.88-15.59c-0.27734-1.9453-11.965-2.5039-35.613-1.5312h-0.14062v0.14062c-2.6406 9.8828-4.8672 20.039-6.3984 30.062-0.97266 6.8164-1.8086 13.637-2.2266 20.457 0 0.27734-0.13672 0.41797-0.41797 0.55469-0.13672 0.14062-0.41406 0.14062-0.69531 0l-11.129-5.5664-13.773 16.562c4.0352 4.4531 8.7656 8.0703 14.051 10.578 4.7305 2.2266 9.4609 4.4531 13.773 4.4531 1.3906 0 2.6445-0.27734 3.8945-0.69531 9.043-3.6211 10.297-19.762 11.688-38.551 0.69531-9.0469 0.69531-18.371 0-27.418 0-0.27734 0.27734-0.69531 0.55469-0.69531 24.07-5.2891 26.574-7.2383 26.434-8.3516zm-104.89 71.395-20.867 6.543-2.2266 15.309 7.0938 68.75c0 0.27734-0.13672 0.69531-0.55469 0.69531-15.023 4.3164-22.258 7.0977-21.98 8.9062 0.13672 0.55859 0.27734 1.8086 10.434 1.8086 5.4258 0 13.078-0.41406 22.816-1.1133h0.13672l3.4805-80.16zm79.574-61.93c0.55859 8.9062 0.55859 17.953-0.13672 27-1.3906 19.203-2.6445 35.766-12.523 39.801-1.3906 0.55859-2.7812 0.83594-4.4492 0.83594-4.5898 0-9.6016-2.3672-14.469-4.5938-5.4258-2.6445-10.434-6.2617-14.609-10.855-1.1094 0.83594-2.3633 1.5312-3.4766 2.0898-5.4258 2.9219-10.293 3.7578-16.832 4.8711-3.1992 0.55469-7.0977 1.25-11.824 2.3672l-1.5312 21.293-3.4805 80.855c0 0.41797-0.27734 0.69531-0.69531 0.69531h-0.69531c-9.7383 0.69531-17.527 1.1133-22.953 1.1133-10.574 0-11.547-1.25-11.824-2.9219-0.41797-2.0859 1.1133-4.3125 22.398-10.297l-7.0977-68.195v-0.13672l2.0859-14.613c-1.668 0.69531-3.4766 0.41797-4.8672-0.55859-1.3906-0.97266-2.3633-2.6445-2.3633-4.3125l-0.83594-55.668c0-0.41797 0.27734-0.69922 0.69531-0.69922s0.69531 0.28125 0.69531 0.69922l0.83594 55.668c0 1.25 0.69531 2.5039 1.8086 3.1992 1.1133 0.69531 2.5039 0.83594 3.6172 0.41797l1.25-0.41797 22.258-7.0977c5.0117-1.2539 9.1836-1.9492 12.383-2.5039 6.3984-1.1133 11.129-1.9492 16.418-4.7344 1.25-0.69531 2.5039-1.3906 3.7539-2.3633l14.469-17.258c0.97266-1.8086 1.8086-3.7578 2.6445-5.707 0.69531-1.668 0.13672-3.7578-1.3906-4.7305l-47.164-33.82c-0.27734-0.27734-0.41406-0.69531-0.13672-0.97266 0.27734-0.27734 0.69531-0.41797 0.97266-0.14062l47.16 33.543c2.0859 1.3906 2.7852 4.1719 1.8086 6.3984-0.69531 1.8125-1.5273 3.4805-2.3633 5.1523l10.156 5.0078c0.41406-6.5391 1.25-13.082 2.2227-19.621 1.5312-10.16 3.6172-20.32 6.4023-30.199l0.13672-0.55859c0.14062-0.27734 0.28125-0.55469 0.69531-0.55469h0.55859c36.586-1.3945 36.867 0.83203 37.145 2.7812 0.13672 1.9492 0.41797 3.8984-26.852 9.7422zm-434.46-97c-1.9453-1.3945-4.0352-2.2266-6.3984-2.6445-0.41797 0-0.69531 0.27734-0.83594 0.55469 0 0.41797 0.27734 0.69531 0.55859 0.83594 2.0859 0.27734 4.0312 1.1133 5.8398 2.3672 2.9219 2.2266 4.1758 5.1484 4.5938 6.6797l-7.793-2.9219c-0.27734-0.14062-0.55469 0-0.69531 0.13672-0.13672 0.14062-0.27734 0.41797-0.27734 0.69531 0.41797 1.8086 0.41797 2.9219 0 3.2031h-0.27734c-0.27734 0-0.83594-0.41797-1.5312-0.83594-0.55469-0.41797-1.3906-1.1133-2.5039-1.6719-0.55859-0.27734-1.2539-0.55469-1.9492-0.83203-0.41797-0.14062-0.69531 0-0.83203 0.41797-0.14062 0.41406 0 0.69531 0.41406 0.83203 0.55859 0.28125 1.2539 0.55859 1.8086 0.83594 0.97656 0.55859 1.8086 1.1133 2.3672 1.5312 0.83594 0.55469 1.5312 1.1133 2.2266 1.1133 0.27734 0 0.55469-0.14062 0.83203-0.27734 1.1133-0.55859 1.2539-1.9492 0.97656-3.4805l6.5391 2.5039c0.55469 0.14062 0.97266 0.14062 1.3906-0.27734 0.41797-0.41797 0.55469-0.83594 0.41797-1.3906-0.28125-1.6719-1.5312-4.8711-4.8711-7.375zm-62.465 84.336-17.945-63.184c-0.14062-0.41797-0.41797-0.55859-0.83594-0.41797-0.41406 0.14062-0.55469 0.55859-0.41406 0.83594l17.945 63.184 17.25 65.133v0.13672l-11.547 4.5938h-0.14062l-22.535-59.148v-0.13672l-25.043-38.691c-0.13672-0.27734-0.41797-0.27734-0.69531-0.27734s-0.41797 0.27734-0.55469 0.41797c-2.5039 7.0977-15.582 42.168-30.887 42.168h-0.55469c-5.7031-0.27734-10.574-7.5156-19.477-20.598-6.8164-10.02-12.934-20.738-17.945-32.008l8.0664-7.5156h0.14062l25.18 26.582c0.14062 0.13672 0.41797 0.27734 0.69531 0.13672 0.27734 0 0.41797-0.27734 0.55859-0.55469l7.5117-27.836 16.277-24.773c0.27734-0.27734 0.13672-0.69531-0.14062-0.97266-0.27734-0.27734-0.69531-0.14062-0.97266 0.14062l-16.277 24.77c-0.14062 0.14062-0.14062 0.28125-0.14062 0.41797l-7.2344 26.582-24.484-25.605c-0.55469-0.55859-1.5312-0.55859-2.0859 0l-8.0664 7.6523c-0.41797 0.41797-0.55469 1.1133-0.27344 1.6719 5.1445 11.133 11.121 21.848 18.078 32.008 9.1836 13.5 14.191 20.875 20.59 21.152h0.55469c15.445 0 28.242-32.285 31.719-41.75l24.348 37.438 22.398 59.148c0.13672 0.41797 0.41797 0.69531 0.83594 0.83594 0.13672 0.13672 0.41406 0.13672 0.55469 0.13672s0.41797 0 0.55469-0.13672l11.547-4.5938c0.69531-0.27734 1.1133-1.1133 0.83594-1.8086zm-112.41-73.762c0.42188-0.13672 0.5625-0.55469 0.42188-0.83594-0.13672-0.41406-0.55469-0.55469-0.83203-0.41406-0.83594 0.27734-1.6758 0.69531-2.5039 1.1133-1.5352 0.69531-2.6484 1.5312-3.6211 2.2266-1.1133 0.69531-1.9453 1.3906-2.5078 0.97266-0.55078-0.41797-0.55078-1.8086 0.14453-4.1758 0-0.27734 0-0.41797-0.14453-0.69531-0.13281-0.27734-0.41016-0.27734-0.69531-0.27734l-13.629 2.3672-0.14062-0.14062c2.5078-3.6172 5.8438-6.543 9.5977-8.6289 3.3438-1.8086 6.8203-2.9219 10.574-3.3398 0.42188 0 0.69531-0.41797 0.55469-0.69531 0-0.41797-0.41406-0.69531-0.69531-0.55859-3.8906 0.41797-7.6523 1.5312-11.129 3.4805-4.0312 2.2266-7.5117 5.2891-10.016 9.0469-0.27734 0.55469-0.41797 1.1133 0 1.668 0.27734 0.55859 0.97266 0.83594 1.5312 0.69531l12.523-2.0859c-0.41797 2.0859-0.5625 3.8984 0.82812 4.7305 0.28516 0.14062 0.69531 0.28125 1.1172 0.28125 0.97266 0 1.8086-0.55859 2.9219-1.3945 0.83203-0.55469 1.9453-1.3906 3.4805-2.0859 0.69531-0.55859 1.5234-0.97266 2.2188-1.2539zm79.992-70.418c0.27734 3.6172 0.14062 7.0977-0.69531 10.574-0.41797 2.2266-1.1133 4.4531-2.0859 6.543-0.14062 0.41797 0 0.69531 0.41797 0.97266 0.41797 0.14062 0.69531 0 0.97266-0.41797 0.97266-2.2266 1.668-4.4531 2.2266-6.8164 0.83594-3.7578 0.97266-7.6562 0.69531-11.551 0-0.28125-0.27734-0.55859-0.55859-0.55859-1.1094-0.27734-2.0859-0.83594-2.6406-1.8086-0.55859-0.83594-0.83594-1.6719-0.55859-2.5039 0.41797-1.3945 2.2266-2.3672 4.0352-2.2266 0.14062 0 0.41797 0 0.55859-0.14062 1.668-1.3906 3.1992-3.2031 4.1719-5.1484 0.97266-1.8086 1.5312-3.6211 1.8086-5.5664l-0.69531-0.14062h0.83594c1.668 1.1133 3.6172 1.8086 5.5625 2.0859 2.5039 0.55859 5.2891 0.41797 7.793-0.27734h0.13672c1.1133 2.9219 1.9492 5.9844 2.2266 9.1875 0.41797 4.5898 1.1133 11.551-3.1992 14.891-0.97266 0.69531-3.1992 1.9453-6.957 1.5312-0.13672 0-0.41797 0-0.55469 0.13672-0.14062 0.14062-0.27734 0.27734-0.27734 0.55859v10.715c0 0.41797 0.27734 0.69531 0.69531 0.69531 0.41406 0 0.69531-0.27734 0.69531-0.69531v-9.8789c3.7539 0.13672 6.1211-1.1172 7.2344-1.9492 4.8672-3.7578 4.1719-11.133 3.7539-16.145-0.27734-3.2031-1.1133-6.4023-2.2266-9.4648-0.27734-0.69531-0.97266-1.1133-1.8086-0.83594-2.3633 0.55859-4.8672 0.69922-7.0938 0.28125-1.8086-0.41797-3.6172-0.97656-5.1484-1.9492-0.41406-0.27734-0.97266-0.27734-1.3906 0-0.41797 0.27734-0.83203 0.69531-0.83203 1.1133-0.28125 1.8086-0.83594 3.4805-1.6719 5.1484-0.97266 1.6719-2.0859 3.2031-3.6172 4.4531h-0.13672c-2.3672 0-4.4531 1.3945-5.0117 3.3398-0.27734 1.1133 0 2.5078 0.83594 3.6211 0.14062 1.1133 1.2539 1.9453 2.5039 2.2266zm177.52-327.47c1.3906 2.7812 2.2266 5.8438 2.3633 8.7617 0.14062 2.2305 0 4.457-0.55469 6.5469-0.14062 0.41406 0.14062 0.69531 0.55469 0.83203h0.14062c0.27734 0 0.55469-0.27734 0.69531-0.55469 0.55859-2.2305 0.69531-4.5938 0.55859-6.9609-0.14062-3.3438-1.1133-6.6797-2.7852-9.6055-0.13672-0.13672-0.27734-0.27734-0.41797-0.27734-1.5273-0.55469-2.5039-2.0859-2.3633-3.6133 0.14062-1.5352 1.3906-2.7852 2.9219-2.9258 0.13672 0 0.41797-0.14062 0.41797-0.27734 0.69531-1.1133 1.25-2.2266 1.668-3.4805 0.83594-2.9219 0.14062-5.4297-0.27734-6.6797l0.13672-0.14062c2.7852 0.97656 5.5664 1.5312 8.4883 1.5312 3.0586 0 6.2617-0.55469 9.1797-1.5312h0.14062c0.69531 2.3711 1.2539 4.7344 1.668 7.1016 0.97656 6.2617 2.0898 13.914-1.8086 17.254-1.1094 0.97656-2.2227 1.2539-3.3359 1.3906-1.2539 0.28125-2.2266 0.55859-3.0625 1.6758-0.97266 1.3906-1.1133 3.4766-0.27734 6.2617 0.14062 0.41406 0.55469 0.55469 0.83594 0.41406 0.41797-0.13672 0.55469-0.55469 0.41797-0.83203-0.69922-2.2305-0.69922-3.8984 0.13672-5.0117 0.41797-0.69922 0.97266-0.83203 2.2266-1.1172 1.1133-0.27734 2.5039-0.55469 3.8945-1.668 4.5898-3.8984 3.3398-11.965 2.3672-18.512-0.41797-2.5-0.97656-5.0078-1.6719-7.3711-0.13672-0.41797-0.41797-0.69531-0.83203-0.97656-0.41797-0.13672-0.83594-0.13672-1.1133 0-2.7852 0.97656-5.707 1.5312-8.625 1.5312-2.7852 0-5.4258-0.55469-8.0703-1.5312-0.55859-0.13672-1.1133 0-1.5312 0.28125-0.41797 0.41406-0.55469 0.97266-0.41797 1.5273 0.41797 1.1133 0.97656 3.3438 0.28125 5.8438-0.28125 0.97656-0.69922 1.9531-1.2539 2.7852-2.0859 0.41797-3.6172 2.0859-3.8945 4.1719 0 2.2305 1.25 4.3203 3.1992 5.1562zm98.078 116.07c-0.14062-0.14062-0.27734-0.27734-0.55469-0.41797l-61.074-29.504c-0.27734-0.14062-0.69531 0-0.97266 0.27734-0.14062 0.27734 0 0.69531 0.27734 0.97266l61.07 29.508 40.762 53.301-10.434 13.918h-0.13672l-43.266-50.102-0.28125-0.27734-44.934-13.223c-0.27734-0.14062-0.69531 0-0.83594 0.27734-0.13672 0.27734-0.13672 0.55859 0.14062 0.83594l30.188 31.453 15.859 63.043-0.13672 0.14062-14.609 2.5039-23.926-52.469c0-0.13672-0.14062-0.13672-0.14062-0.27734l-55.648-45.926v-27.832c0-0.41797-0.27734-0.69922-0.69531-0.69922-0.41797 0-0.69531 0.28125-0.69531 0.69922v27.832c0 0.41797 0.14062 0.83594 0.55859 1.1133l55.508 45.789 23.789 52.328c0.27734 0.55469 0.83203 0.83203 1.3906 0.83203h0.27734l14.469-2.6445c0.41797-0.13672 0.83594-0.27734 0.97266-0.69531 0.27734-0.41797 0.27734-0.83203 0.14062-1.1133l-15.859-63.043c0-0.27734-0.14062-0.55859-0.41797-0.69531l-28.242-29.504 42.293 12.523 43.125 49.965c0.28125 0.41406 0.83594 0.55469 1.2539 0.55469 0.41797 0 0.83594-0.27734 1.1133-0.55469l10.434-13.918c0.41797-0.55859 0.41797-1.2539 0-1.8086zm-58.848-105.91 8.3477-7.0938 0.14062-0.14062 23.371-40.914v-0.14062c1.9453-6.957 3.1992-10.16 4.0352-10.02 0.27734 0 0.83203 0.14062 0.69531 6.1211 0 0.28125 0.13672 0.41797 0.27734 0.55859 0.14062 0.13672 0.41797 0.13672 0.69531 0.13672 9.3203-3.6133 14.328-4.7305 15.164-3.1953 0.69531 1.1094-1.1133 3.8906-4.4531 6.8164-2.9219 2.6406-6.6758 4.3164-10.852 5.0117-0.27734 0-0.41406 0.13672-0.55469 0.41406l-18.504 45.512-9.875 8.2109c-0.28125 0.27734-0.28125 0.69531-0.14062 0.97266 0.14062 0.14062 0.27734 0.27734 0.55469 0.27734 0.14062 0 0.28125 0 0.41797-0.13672l9.8789-8.2148c0.14062-0.13672 0.27734-0.41406 0.41797-0.55078l18.223-45.23c4.3125-0.69922 8.0703-2.6445 11.129-5.293 2.3672-2.0859 6.2617-6.1211 4.7305-8.4844-1.1133-1.9531-4.1719-2.2305-15.859 2.3633 0.14062-4.7344-0.41797-6.2617-1.9453-6.5391-1.6719-0.28125-2.6445 0.69531-5.5664 10.852l-23.094 40.641-8.207 7.0938c-0.27734 0.27734-0.27734 0.69922-0.14062 0.97656 0.41797 0.28125 0.83594 0.28125 1.1133 0zm-70.254 5.5703c-0.14062 0.41797-0.41797 0.55859-0.83594 0.55859l-3.6172-0.97266c-0.13672 0-0.13672-0.14062-0.27734-0.14062l-37.84-31.871-0.14062-0.14062c-7.9297-10.715-9.7383-11.551-10.293-11.133-0.27734 0.14062-0.55469 0.83594 0.55469 4.0352 0.14062 0.28125 0 0.55859-0.13672 0.69531-0.14062 0.14062-0.41797 0.28125-0.69531 0.14062-7.6523-2.9258-11.824-3.7578-12.801-2.3672-0.27734 0.42188-0.27734 0.83594 0 1.5312 0.83594 2.6445 5.0078 6.8203 9.7383 8.7695 2.2266 0.83594 4.5898 1.3906 6.957 1.3906 0.14062 0 0.41797 0.14062 0.55469 0.27734l32.555 38.27 8.4883 2.7852c0.41406 0.14062 0.55469 0.55859 0.41406 0.83594-0.13672 0.27734-0.41406 0.41797-0.69531 0.41797h-0.27734l-8.4844-2.7812c-0.28125-0.14062-0.41797-0.27734-0.55859-0.41797l-32.273-37.996c-2.5039 0-5.0078-0.55469-7.2344-1.5273-5.2891-2.2266-9.6016-6.6836-10.434-9.6055-0.28125-0.97266-0.28125-1.9492 0.13672-2.6445 0.69531-0.97266 1.8086-2.9219 13.078 1.2539-0.69531-2.2266-0.69531-3.6172 0.55469-4.3125 1.3945-0.83594 2.5078-1.5312 12.105 11.41l37.699 31.73 3.4805 0.83594c0.13672 0.27344 0.27734 0.69531 0.27734 0.97266"/>
</g>
<path d="m521.89 689.81c0.97656-2.0859-1.9453-5.2891-2.2227-5.5664-0.28125 0.55469-1.8086 3.4805-0.55859 5.4258 0.14062 0.28125 0.69531 1.1133 1.3906 1.1133 0.69531 0.14062 1.2539-0.83203 1.3906-0.97266zm-16.137-3.0625c2.0859-2.0859-0.13672-7.2344-0.27734-7.6523-0.69531 0.55469-3.6172 3.4766-3.0625 6.4023 0.14062 0.41406 0.28125 1.668 1.2539 1.9453 0.97266 0.41797 2.0859-0.69531 2.0859-0.69531zm13.773-18.09c0.97266-2.0898-1.9492-5.2891-2.2266-5.5664-0.27734 0.55469-1.8086 3.4766-0.55469 5.4258 0.13672 0.27734 0.69531 1.1133 1.3906 1.1133 0.69531 0.14062 1.25-0.83594 1.3906-0.97266zm-11.547-4.1758c-0.83594-0.27734-1.1133-1.5312-1.2539-1.9492-0.55469-2.9219 2.3672-5.8438 3.0625-6.4023 0.14062 0.41797 2.3633 5.5664 0.27734 7.6562 0 0-1.1133 0.97266-2.0859 0.69531" fill="#fff"/>
<path d="m17.25 0h0.75v8.25h-0.75z"/>
<path d="m0 17.25h8.25v0.75h-8.25z"/>
<path d="m827.25 0h0.75v8.25h-0.75z"/>
<g clip-path="url(#d)">
<path d="m836.25 17.25h9v0.75h-9z"/>
</g>
<g clip-path="url(#c)">
<path d="m17.25 836.25h0.75v9h-0.75z"/>
</g>
<path d="m0 827.25h8.25v0.75h-8.25z"/>
<g clip-path="url(#b)">
<path d="m827.25 836.25h0.75v9h-0.75z"/>
</g>
<g clip-path="url(#a)">
<path d="m836.25 827.25h9v0.75h-9z"/>
</g>
</svg>
