<?xml version="1.0" encoding="UTF-8" standalone="no"?>
<svg
   xmlns:dc="http://purl.org/dc/elements/1.1/"
   xmlns:cc="http://creativecommons.org/ns#"
   xmlns:rdf="http://www.w3.org/1999/02/22-rdf-syntax-ns#"
   xmlns:svg="http://www.w3.org/2000/svg"
   xmlns="http://www.w3.org/2000/svg"
   xmlns:sodipodi="http://sodipodi.sourceforge.net/DTD/sodipodi-0.dtd"
   xmlns:inkscape="http://www.inkscape.org/namespaces/inkscape"
   inkscape:version="1.0beta2 (2b71d25, 2019-12-03)"
   sodipodi:docname="medal.svg"
   id="svg57"
   zoomAndPan="magnify"
   width="230.3"
   viewBox="97.5 54.1 230.3 317.1"
   version="1.0"
   preserveAspectRatio="xMidYMid meet"
   height="317.1">
  <metadata
     id="metadata63">
    <rdf:RDF>
      <cc:Work
         rdf:about="">
        <dc:format>image/svg+xml</dc:format>
        <dc:type
           rdf:resource="http://purl.org/dc/dcmitype/StillImage" />
      </cc:Work>
    </rdf:RDF>
  </metadata>
  <defs
     id="defs61" />
  <sodipodi:namedview
     inkscape:current-layer="svg57"
     inkscape:window-maximized="0"
     inkscape:window-y="23"
     inkscape:window-x="0"
     inkscape:cy="132.71363"
     inkscape:cx="181.51865"
     inkscape:zoom="2.2411967"
     showgrid="false"
     id="namedview59"
     inkscape:window-height="754"
     inkscape:window-width="1280"
     inkscape:pageshadow="2"
     inkscape:pageopacity="0"
     guidetolerance="10"
     gridtolerance="10"
     objecttolerance="10"
     borderopacity="1"
     inkscape:document-rotation="0"
     bordercolor="#666666"
     pagecolor="#ffffff" />
  <g
     transform="translate(0.01019452,-0.32909706)"
     id="change1_1">
    <path
       id="path1092"
       fill="#991b28"
       d="m 278.45312,345.71484 -42.58593,25.4336 -32.91407,-152.07422 45.94141,-9.94141 29.55859,136.58203"
       inkscape:connector-curvature="0" />
  </g>
  <g
     transform="translate(0.01019452,-0.32909706)"
     id="change2_1">
    <path
       id="path1095"
       fill="#c32435"
       d="m 278.45312,345.71484 49.28907,5.54297 -32.89453,-152.07031 -45.95313,9.94531 29.55859,136.58203"
       inkscape:connector-curvature="0" />
  </g>
  <g
     transform="translate(0.01019452,-0.32909706)"
     id="change3_1">
    <path
       id="path1098"
       fill="#b32130"
       d="m 303.10547,348.48437 -24.65235,-2.76953 -18.99218,-87.76172 2.4375,0.0859 10.08984,-14.98047 7.82031,-2.24609 23.29688,107.67187"
       inkscape:connector-curvature="0" />
  </g>
  <g
     transform="translate(0.01019452,-0.32909706)"
     id="change4_1">
    <path
       id="path1101"
       fill="#8d1924"
       d="m 257.15234,358.41406 -20.61328,-95.32031 7.28125,-5.6875 15.64063,0.54687 18.99218,87.76172 -21.30078,12.69922"
       inkscape:connector-curvature="0" />
  </g>
  <g
     transform="translate(0.01019452,-0.32909706)"
     id="change1_2">
    <path
       id="path1104"
       fill="#991b28"
       d="m 146.74609,345.71484 42.60547,25.4336 32.89453,-152.07422 -45.95703,-9.94141 -29.54297,136.58203"
       inkscape:connector-curvature="0" />
  </g>
  <g
     transform="translate(0.01019452,-0.32909706)"
     id="change2_2">
    <path
       id="path1107"
       fill="#c32435"
       d="m 146.74609,345.71484 -49.289059,5.54297 32.914059,-152.07031 45.91797,9.94531 -29.54297,136.58203"
       inkscape:connector-curvature="0" />
  </g>
  <g
     transform="translate(0.01019452,-0.32909706)"
     id="change3_2">
    <path
       id="path1110"
       fill="#b32130"
       d="m 122.10938,348.48437 23.28515,-107.66796 7.79688,2.24218 10.10937,14.98047 2.42969,-0.0859 -18.98438,87.76172 -24.63671,2.76953"
       inkscape:connector-curvature="0" />
  </g>
  <g
     transform="translate(0.01019452,-0.32909706)"
     id="change4_2">
    <path
       id="path1113"
       fill="#8d1924"
       d="m 168.04687,358.41406 -21.30078,-12.69922 18.98438,-87.76172 15.63281,-0.54687 7.29688,5.69531 -20.61329,95.3125"
       inkscape:connector-curvature="0" />
  </g>
  <g
     transform="translate(0.01019452,-0.32909706)"
     id="change5_1">
    <path
       id="path1116"
       fill="#d89816"
       d="m 212.58984,60.230469 16.99219,-6.175781 14.23828,11.121093 18.07813,-0.613281 10.08984,14.976562 17.39063,4.980469 4.98046,17.374999 14.98047,10.10938 -0.61718,18.05859 11.12109,14.25391 -6.19141,16.97265 6.19141,16.99219 -11.12109,14.23828 0.61718,18.05859 -14.98047,10.10938 -4.98046,17.37109 -17.39063,5 -10.08984,14.98047 -18.07813,-0.63281 -14.23828,11.12109 -16.99219,-6.17578 -16.97265,6.17578 -14.25391,-11.12109 -18.0625,0.63281 -10.10937,-14.98047 -17.3711,-5 -4.98047,-17.37109 -14.98046,-10.10938 0.63671,-18.05859 -11.125,-14.23828 6.17969,-16.99219 -6.17969,-16.97265 11.125,-14.25391 -0.63671,-18.05859 14.98046,-10.10938 4.98047,-17.374999 17.3711,-4.980469 10.10937,-14.976562 18.0625,0.613281 14.25391,-11.121093 16.97265,6.175781"
       inkscape:connector-curvature="0" />
  </g>
  <g
     transform="translate(0.01019452,-0.32909706)"
     id="change6_1">
    <path
       id="path1119"
       fill="#f5c116"
       d="m 212.58984,70.664062 15.25391,-5.542968 12.76953,9.984375 16.19531,-0.566407 9.0586,13.441407 15.59375,4.457031 4.45703,15.57813 13.4414,9.07812 -0.5625,16.19141 9.96485,12.77343 -5.54297,15.23047 5.54297,15.23828 -9.96485,12.76953 0.5625,16.19141 -13.4414,9.07813 -4.45703,15.57812 -15.59375,4.47266 -9.0586,13.4414 -16.19531,-0.57812 -12.76953,9.98047 -15.25391,-5.54297 -15.21484,5.54297 -12.78906,-9.98047 -16.19532,0.57812 -9.05468,-13.4414 -15.57813,-4.47266 -4.47656,-15.57812 -13.4375,-9.07813 0.57813,-16.19141 -10,-12.76953 5.55859,-15.23828 -5.55859,-15.23047 10,-12.77343 -0.57813,-16.19141 13.4375,-9.07812 4.47656,-15.57813 15.57813,-4.457031 9.05468,-13.441407 16.19532,0.566407 12.78906,-9.984375 15.21484,5.542968"
       inkscape:connector-curvature="0" />
  </g>
  <g
     transform="translate(0.01019452,-0.32909706)"
     id="change5_2">
    <path
       id="path1122"
       fill="#d89816"
       d="m 285.35547,161.28906 h -0.3711 c 0,19.9961 -8.10156,38.09375 -21.19921,51.19531 -13.10157,13.10157 -31.19532,21.19922 -51.19532,21.19922 -19.98828,0 -38.07812,-8.09765 -51.17578,-21.19922 -13.09765,-13.10156 -21.19922,-31.19921 -21.19922,-51.19531 0,-19.98437 8.10157,-38.07422 21.19922,-51.17578 13.09766,-13.097655 31.1875,-21.195311 51.17578,-21.195311 20,0 38.09375,8.097656 51.19532,21.195311 13.09765,13.10156 21.19921,31.19141 21.19921,51.17578 h 0.7461 c 0,-40.38281 -32.73828,-73.117185 -73.14063,-73.117185 -40.38281,0 -73.12109,32.734375 -73.12109,73.117185 0,40.40235 32.73828,73.14063 73.12109,73.14063 40.40235,0 73.14063,-32.73828 73.14063,-73.14063 h -0.375"
       inkscape:connector-curvature="0" />
  </g>
  <g
     transform="translate(0.01019452,-0.32909706)"
     id="change7_1">
    <path
       id="path1125"
       fill="#e9e9e9"
       d="m 212.58984,60.230469 -0.34375,-0.125 0.34375,0.125"
       inkscape:connector-curvature="0" />
  </g>
  <g
     transform="translate(0.01019452,-0.32909706)"
     id="change8_1">
    <path
       id="path1128"
       fill="#c68b14"
       d="m 229.58203,268.52734 -16.71875,-6.07812 -0.27344,-0.0977 -0.34375,0.125 v -10.43359 l 0.34375,-0.125 15.25391,5.54297 12.76953,-9.98047 16.19531,0.57812 9.0586,-13.4414 15.59375,-4.47266 4.45703,-15.57812 13.4414,-9.07813 -0.5625,-16.19141 9.96485,-12.76953 -5.54297,-15.23828 5.54297,-15.23047 -9.96485,-12.77343 0.5625,-16.19141 -13.4414,-9.07812 -4.45703,-15.57813 -15.59375,-4.457031 -9.0586,-13.441407 -16.19531,0.566407 -12.76953,-9.984375 -15.25391,5.542968 -0.34375,-0.125 V 60.105469 l 0.34375,0.125 16.99219,-6.175781 14.23828,11.121093 18.07813,-0.613281 10.08984,14.976562 17.39063,4.980469 4.98046,17.374999 14.98047,10.10938 -0.61718,18.05859 11.12109,14.25391 -6.19141,16.97265 6.19141,16.99219 -11.12109,14.23828 0.61718,18.05859 -14.98047,10.10938 -4.98046,17.37109 -17.39063,5 -10.08984,14.98047 -2.4375,-0.0859 -15.64063,-0.54687 -7.28125,5.6875 -6.95703,5.43359"
       inkscape:connector-curvature="0" />
  </g>
  <g
     transform="translate(0.01019452,-0.32909706)"
     id="change9_1">
    <path
       id="path1131"
       fill="#e0b014"
       d="m 227.84375,257.46094 -15.25391,-5.54297 -0.34375,0.125 v -17.61328 c 0.11719,0 0.23047,0 0.34375,0 40.40235,0 73.14063,-32.73828 73.14063,-73.14063 0,-40.38281 -32.73828,-73.117185 -73.14063,-73.117185 -0.11328,0 -0.22656,0 -0.34375,0 V 70.539062 l 0.34375,0.125 15.25391,-5.542968 12.76953,9.984375 16.19531,-0.566407 9.0586,13.441407 15.59375,4.457031 4.45703,15.57813 13.4414,9.07812 -0.5625,16.19141 9.96485,12.77343 -5.54297,15.23047 5.54297,15.23828 -9.96485,12.76953 0.5625,16.19141 -13.4414,9.07813 -4.45703,15.57812 -15.59375,4.47266 -9.0586,13.4414 -16.19531,-0.57812 -12.76953,9.98047 m -15.25391,-23.77735 c -0.11328,0 -0.22656,0 -0.34375,0 V 88.917969 c 0.11719,0 0.23047,0 0.34375,0 20,0 38.09375,8.097656 51.19532,21.195311 13.09765,13.10156 21.19921,31.19141 21.19921,51.17578 0,19.9961 -8.10156,38.09375 -21.19921,51.19531 -13.10157,13.10157 -31.19532,21.19922 -51.19532,21.19922"
       inkscape:connector-curvature="0" />
  </g>
  <g
     transform="translate(0.01019452,-0.32909706)"
     id="change8_2">
    <path
       id="path1134"
       fill="#c68b14"
       d="m 212.58984,234.42969 c -0.11328,0 -0.22656,0 -0.34375,0 v -0.7461 c 0.11719,0 0.23047,0 0.34375,0 20,0 38.09375,-8.09765 51.19532,-21.19922 13.09765,-13.10156 21.19921,-31.19921 21.19921,-51.19531 0,-19.98437 -8.10156,-38.07422 -21.19921,-51.17578 -13.10157,-13.097655 -31.19532,-21.195311 -51.19532,-21.195311 -0.11328,0 -0.22656,0 -0.34375,0 v -0.746094 c 0.11719,0 0.23047,0 0.34375,0 40.40235,0 73.14063,32.734375 73.14063,73.117185 0,40.40235 -32.73828,73.14063 -73.14063,73.14063 m 73.14063,-73.14063 v 0"
       inkscape:connector-curvature="0" />
  </g>
  <path
     transform="translate(97.5,54.1)"
     inkscape:connector-curvature="0"
     id="path1282"
     d="M 108.16498,178.71329 C 90.732217,176.88353 74.749998,169.11251 63.017577,156.76132 42.186971,134.83211 37.094029,103.21258 49.967666,75.740959 55.387423,64.175498 66.187418,52.194765 77.377856,45.334075 84.03768,41.251036 92.932131,37.704562 100.1351,36.260103 c 3.79682,-0.761402 10.64663,-1.609346 13.04952,-1.615412 l 1.45012,-0.0037 v 72.282809 72.28281 l -1.45012,-0.0593 c -0.79757,-0.0326 -3.0564,-0.22795 -5.01964,-0.43401 z"
     style="fill:none;fill-opacity:1;stroke:none;stroke-width:0.44619;stroke-opacity:1" />
  <path
     transform="translate(97.5,54.1)"
     inkscape:connector-curvature="0"
     id="path1284"
     d="M 108.16498,178.71329 C 90.732217,176.88353 74.749998,169.11251 63.017577,156.76132 42.186971,134.83211 37.094029,103.21258 49.967666,75.740959 55.387423,64.175498 66.187418,52.194765 77.377856,45.334075 84.03768,41.251036 92.932131,37.704562 100.1351,36.260103 c 3.79682,-0.761402 10.64663,-1.609346 13.04952,-1.615412 l 1.45012,-0.0037 v 72.282809 72.28281 l -1.45012,-0.0593 c -0.79757,-0.0326 -3.0564,-0.22795 -5.01964,-0.43401 z"
     style="fill:#f5c116;fill-opacity:1;stroke:none;stroke-width:0.44619;stroke-opacity:1" />
</svg>
